M48
METRIC,LZ,000.000
;FILE_FORMAT=3:3
;TYPE=PLATED
;Layer: PTH_Through
;EasyEDA v6.5.51, 2026-03-13 16:17:01
;3a29f5427acf447d8b5b9ab7626d35c2,10
;Gerber Generator version 0.2
;Holesize 1 = 0.800 mm
T01C0.800
;Holesize 2 = 0.901 mm
T02C0.901
;Holesize 3 = 0.915 mm
T03C0.915
;Holesize 4 = 1.000 mm
T04C1.000
;Holesize 5 = 1.101 mm
T05C1.101
;Holesize 6 = 3.000 mm
T06C3.000
%
G05
G90
T01
X092329Y055626
X092329Y057531
X092329Y059436
T02
X012827Y065151G85X012827Y065151
X012827Y062611G85X012827Y062611
X012827Y060071G85X012827Y060071
X012827Y057531G85X012827Y057531
X012827Y054991G85X012827Y054991
X012827Y052451G85X012827Y052451
T03
X066485Y041656
X063945Y041656
X061532Y041656
X058992Y041656
X056325Y041656
X053785Y041656
X051372Y041656
X048832Y041656
X046292Y041656
X043752Y041656
X075438Y045466
X075438Y042926
X075438Y040386
X038481Y032131
X035941Y032131
X033401Y032131
X030861Y032131
T04
X084582Y060840
X084582Y045840
X093987Y065913
X078987Y065913
X029702Y-036957G85X029702Y-036957
X034782Y-036957G85X034782Y-036957
X032242Y-036957G85X032242Y-036957
X027162Y-036957G85X027162Y-036957
X016507Y-036957G85X016513Y-036957
X019047Y-036957G85X019053Y-036957
T05
X063627Y-029210
X063627Y-031750
X061087Y-029210
X061087Y-031750
X058547Y-029210
X058547Y-031750
X056007Y-029210
X056007Y-031750
X053467Y-029210
X053467Y-031750
X050927Y-029210
X050927Y-031750
X048387Y-029210
X048387Y-031750
X045847Y-029210
X045847Y-031750
X043307Y-029210
X043307Y-031750
X040767Y-029210
X040767Y-031750
X038227Y-029210
X038227Y-031750
X035687Y-029210
X035687Y-031750
X033147Y-029210
X033147Y-031750
X030607Y-029210
X030607Y-031750
X028067Y-029210
X028067Y-031750
X025527Y-029210
X025527Y-031750
X022987Y-029210
X022987Y-031750
X020447Y-029210
X020447Y-031750
X017907Y-029210
X017907Y-031750
X015367Y-029210
X015367Y-031750
T06
X069902Y068072G85X070052Y068072
X069902Y049022G85X070052Y049022
M30
