G04 Layer: BottomSolderMaskLayer*
G04 EasyEDA v6.5.51, 2026-03-13 16:17:01*
G04 3a29f5427acf447d8b5b9ab7626d35c2,10*
G04 Gerber Generator version 0.2*
G04 Scale: 100 percent, Rotated: No, Reflected: No *
G04 Dimensions in millimeters *
G04 leading zeros omitted , absolute positions ,4 integer and 5 decimal *
%FSLAX45Y45*%
%MOMM*%

%AMMACRO1*4,1,24,-0.8499,-1.0508,-0.8656,-1.0483,-0.8799,-1.0411,-0.891,-1.03,-0.8981,-1.0157,-0.9007,-1,-0.9007,1,-0.8981,1.0157,-0.891,1.03,-0.8799,1.0411,-0.8656,1.0483,-0.8499,1.0508,0.8499,1.0508,0.8656,1.0483,0.8799,1.0411,0.891,1.03,0.8981,1.0157,0.9007,1,0.9007,-1,0.8981,-1.0157,0.891,-1.03,0.8799,-1.0411,0.8656,-1.0483,0.8499,-1.0508,-0.8499,-1.0508,0*%
%AMMACRO2*4,1,8,-0.8085,-0.9507,-0.8382,-0.9207,-0.8382,0.921,-0.8085,0.9507,0.8082,0.9507,0.8382,0.921,0.8382,-0.9207,0.8082,-0.9507,-0.8085,-0.9507,0*%
%AMMACRO3*4,1,8,-1.0211,-1.0508,-1.0508,-1.0208,-1.0508,1.0211,-1.0211,1.0508,1.0208,1.0508,1.0508,1.0211,1.0508,-1.0208,1.0208,-1.0508,-1.0211,-1.0508,0*%
%ADD10C,2.7032*%
%ADD11MACRO1*%
%ADD12MACRO2*%
%ADD13C,1.9016*%
%ADD14MACRO3*%
%ADD15C,0.0154*%
%ADD16C,2.1016*%
%ADD17C,1.4032*%
%ADD18C,1.6256*%
%ADD19C,1.6111*%
%ADD20C,3.7191*%

%LPD*%
D10*
G01*
X8458200Y6084011D03*
G01*
X8458200Y4583988D03*
G01*
X9398711Y6591300D03*
G01*
X7898688Y6591300D03*
G36*
X2964865Y-3800602D02*
G01*
X2964230Y-3800551D01*
X2953638Y-3799230D01*
X2953004Y-3799128D01*
X2942666Y-3796461D01*
X2942081Y-3796258D01*
X2932150Y-3792346D01*
X2931540Y-3792067D01*
X2922193Y-3786911D01*
X2921660Y-3786581D01*
X2913024Y-3780307D01*
X2912541Y-3779901D01*
X2904769Y-3772585D01*
X2904337Y-3772128D01*
X2897530Y-3763924D01*
X2897149Y-3763390D01*
X2891434Y-3754373D01*
X2891129Y-3753815D01*
X2886583Y-3744137D01*
X2886354Y-3743553D01*
X2883052Y-3733419D01*
X2882900Y-3732809D01*
X2880893Y-3722319D01*
X2880791Y-3721658D01*
X2880131Y-3711016D01*
X2880131Y-3680383D01*
X2880791Y-3669741D01*
X2880893Y-3669080D01*
X2882900Y-3658590D01*
X2883052Y-3657980D01*
X2886354Y-3647846D01*
X2886583Y-3647262D01*
X2891129Y-3637584D01*
X2891434Y-3637026D01*
X2897149Y-3628009D01*
X2897530Y-3627475D01*
X2904337Y-3619271D01*
X2904769Y-3618814D01*
X2912541Y-3611498D01*
X2913024Y-3611092D01*
X2921660Y-3604818D01*
X2922193Y-3604488D01*
X2931540Y-3599332D01*
X2932150Y-3599053D01*
X2942081Y-3595141D01*
X2942666Y-3594938D01*
X2953004Y-3592271D01*
X2953638Y-3592169D01*
X2964230Y-3590848D01*
X2964865Y-3590797D01*
X2975533Y-3590797D01*
X2976168Y-3590848D01*
X2986760Y-3592169D01*
X2987395Y-3592271D01*
X2997733Y-3594938D01*
X2998317Y-3595141D01*
X3008249Y-3599053D01*
X3008858Y-3599332D01*
X3018205Y-3604488D01*
X3018739Y-3604818D01*
X3027375Y-3611092D01*
X3027857Y-3611498D01*
X3035630Y-3618814D01*
X3036061Y-3619271D01*
X3042869Y-3627475D01*
X3043250Y-3628009D01*
X3048990Y-3637026D01*
X3049295Y-3637584D01*
X3053816Y-3647262D01*
X3054045Y-3647846D01*
X3057347Y-3657980D01*
X3057499Y-3658590D01*
X3059506Y-3669080D01*
X3059607Y-3669741D01*
X3060268Y-3680383D01*
X3060268Y-3711016D01*
X3059607Y-3721658D01*
X3059506Y-3722319D01*
X3057499Y-3732809D01*
X3057347Y-3733419D01*
X3054045Y-3743553D01*
X3053816Y-3744137D01*
X3049295Y-3753815D01*
X3048990Y-3754373D01*
X3043250Y-3763390D01*
X3042869Y-3763924D01*
X3036061Y-3772128D01*
X3035630Y-3772585D01*
X3027857Y-3779901D01*
X3027375Y-3780307D01*
X3018739Y-3786581D01*
X3018205Y-3786911D01*
X3008858Y-3792067D01*
X3008249Y-3792346D01*
X2998317Y-3796258D01*
X2997733Y-3796461D01*
X2987395Y-3799128D01*
X2986760Y-3799230D01*
X2976168Y-3800551D01*
X2975533Y-3800602D01*
G37*
D11*
G01*
X3478199Y-3695700D03*
G36*
X3218865Y-3800602D02*
G01*
X3218230Y-3800551D01*
X3207638Y-3799230D01*
X3207004Y-3799128D01*
X3196666Y-3796461D01*
X3196081Y-3796258D01*
X3186150Y-3792346D01*
X3185540Y-3792067D01*
X3176193Y-3786911D01*
X3175660Y-3786581D01*
X3167024Y-3780307D01*
X3166541Y-3779901D01*
X3158769Y-3772585D01*
X3158337Y-3772128D01*
X3151530Y-3763924D01*
X3151149Y-3763390D01*
X3145409Y-3754373D01*
X3145104Y-3753815D01*
X3140583Y-3744137D01*
X3140354Y-3743553D01*
X3137052Y-3733419D01*
X3136900Y-3732809D01*
X3134893Y-3722319D01*
X3134791Y-3721658D01*
X3134131Y-3711016D01*
X3134131Y-3680383D01*
X3134791Y-3669741D01*
X3134893Y-3669080D01*
X3136900Y-3658590D01*
X3137052Y-3657980D01*
X3140354Y-3647846D01*
X3140583Y-3647262D01*
X3145104Y-3637584D01*
X3145409Y-3637026D01*
X3151149Y-3628009D01*
X3151530Y-3627475D01*
X3158337Y-3619271D01*
X3158769Y-3618814D01*
X3166541Y-3611498D01*
X3167024Y-3611092D01*
X3175660Y-3604818D01*
X3176193Y-3604488D01*
X3185540Y-3599332D01*
X3186150Y-3599053D01*
X3196081Y-3595141D01*
X3196666Y-3594938D01*
X3207004Y-3592271D01*
X3207638Y-3592169D01*
X3218230Y-3590848D01*
X3218865Y-3590797D01*
X3229533Y-3590797D01*
X3230168Y-3590848D01*
X3240760Y-3592169D01*
X3241395Y-3592271D01*
X3251733Y-3594938D01*
X3252317Y-3595141D01*
X3262249Y-3599053D01*
X3262858Y-3599332D01*
X3272205Y-3604488D01*
X3272739Y-3604818D01*
X3281375Y-3611092D01*
X3281857Y-3611498D01*
X3289630Y-3618814D01*
X3290061Y-3619271D01*
X3296869Y-3627475D01*
X3297250Y-3628009D01*
X3302990Y-3637026D01*
X3303295Y-3637584D01*
X3307816Y-3647262D01*
X3308045Y-3647846D01*
X3311347Y-3657980D01*
X3311499Y-3658590D01*
X3313506Y-3669080D01*
X3313607Y-3669741D01*
X3314268Y-3680383D01*
X3314268Y-3711016D01*
X3313607Y-3721658D01*
X3313506Y-3722319D01*
X3311499Y-3732809D01*
X3311347Y-3733419D01*
X3308045Y-3743553D01*
X3307816Y-3744137D01*
X3303295Y-3753815D01*
X3302990Y-3754373D01*
X3297250Y-3763390D01*
X3296869Y-3763924D01*
X3290061Y-3772128D01*
X3289630Y-3772585D01*
X3281857Y-3779901D01*
X3281375Y-3780307D01*
X3272739Y-3786581D01*
X3272205Y-3786911D01*
X3262858Y-3792067D01*
X3262249Y-3792346D01*
X3252317Y-3796258D01*
X3251733Y-3796461D01*
X3241395Y-3799128D01*
X3240760Y-3799230D01*
X3230168Y-3800551D01*
X3229533Y-3800602D01*
G37*
G36*
X2710865Y-3800602D02*
G01*
X2710230Y-3800551D01*
X2699638Y-3799230D01*
X2699004Y-3799128D01*
X2688666Y-3796461D01*
X2688081Y-3796258D01*
X2678150Y-3792346D01*
X2677540Y-3792067D01*
X2668193Y-3786911D01*
X2667660Y-3786581D01*
X2659024Y-3780307D01*
X2658541Y-3779901D01*
X2650769Y-3772585D01*
X2650337Y-3772128D01*
X2643530Y-3763924D01*
X2643149Y-3763390D01*
X2637434Y-3754373D01*
X2637129Y-3753815D01*
X2632583Y-3744137D01*
X2632354Y-3743553D01*
X2629052Y-3733419D01*
X2628900Y-3732809D01*
X2626893Y-3722319D01*
X2626791Y-3721658D01*
X2626131Y-3711016D01*
X2626131Y-3680383D01*
X2626791Y-3669741D01*
X2626893Y-3669080D01*
X2628900Y-3658590D01*
X2629052Y-3657980D01*
X2632354Y-3647846D01*
X2632583Y-3647262D01*
X2637129Y-3637584D01*
X2637434Y-3637026D01*
X2643149Y-3628009D01*
X2643530Y-3627475D01*
X2650337Y-3619271D01*
X2650769Y-3618814D01*
X2658541Y-3611498D01*
X2659024Y-3611092D01*
X2667660Y-3604818D01*
X2668193Y-3604488D01*
X2677540Y-3599332D01*
X2678150Y-3599053D01*
X2688081Y-3595141D01*
X2688666Y-3594938D01*
X2699004Y-3592271D01*
X2699638Y-3592169D01*
X2710230Y-3590848D01*
X2710865Y-3590797D01*
X2721533Y-3590797D01*
X2722168Y-3590848D01*
X2732760Y-3592169D01*
X2733395Y-3592271D01*
X2743733Y-3594938D01*
X2744317Y-3595141D01*
X2754249Y-3599053D01*
X2754858Y-3599332D01*
X2764205Y-3604488D01*
X2764739Y-3604818D01*
X2773375Y-3611092D01*
X2773857Y-3611498D01*
X2781630Y-3618814D01*
X2782061Y-3619271D01*
X2788869Y-3627475D01*
X2789250Y-3628009D01*
X2794990Y-3637026D01*
X2795295Y-3637584D01*
X2799816Y-3647262D01*
X2800045Y-3647846D01*
X2803347Y-3657980D01*
X2803499Y-3658590D01*
X2805506Y-3669080D01*
X2805607Y-3669741D01*
X2806268Y-3680383D01*
X2806268Y-3711016D01*
X2805607Y-3721658D01*
X2805506Y-3722319D01*
X2803499Y-3732809D01*
X2803347Y-3733419D01*
X2800045Y-3743553D01*
X2799816Y-3744137D01*
X2795295Y-3753815D01*
X2794990Y-3754373D01*
X2789250Y-3763390D01*
X2788869Y-3763924D01*
X2782061Y-3772128D01*
X2781630Y-3772585D01*
X2773857Y-3779901D01*
X2773375Y-3780307D01*
X2764739Y-3786581D01*
X2764205Y-3786911D01*
X2754858Y-3792067D01*
X2754249Y-3792346D01*
X2744317Y-3796258D01*
X2743733Y-3796461D01*
X2733395Y-3799128D01*
X2732760Y-3799230D01*
X2722168Y-3800551D01*
X2721533Y-3800602D01*
G37*
D12*
G01*
X6362700Y-2921000D03*
D13*
G01*
X6362700Y-3175000D03*
G01*
X6108700Y-2921000D03*
G01*
X6108700Y-3175000D03*
G01*
X5854700Y-2921000D03*
G01*
X5854700Y-3175000D03*
G01*
X5600700Y-2921000D03*
G01*
X5600700Y-3175000D03*
G01*
X5346700Y-2921000D03*
G01*
X5346700Y-3175000D03*
G01*
X5092700Y-2921000D03*
G01*
X5092700Y-3175000D03*
G01*
X4838700Y-2921000D03*
G01*
X4838700Y-3175000D03*
G01*
X4584700Y-2921000D03*
G01*
X4584700Y-3175000D03*
G01*
X4330700Y-2921000D03*
G01*
X4330700Y-3175000D03*
G01*
X4076700Y-2921000D03*
G01*
X4076700Y-3175000D03*
G01*
X3822700Y-2921000D03*
G01*
X3822700Y-3175000D03*
G01*
X3568700Y-2921000D03*
G01*
X3568700Y-3175000D03*
G01*
X3314700Y-2921000D03*
G01*
X3314700Y-3175000D03*
G01*
X3060700Y-2921000D03*
G01*
X3060700Y-3175000D03*
G01*
X2806700Y-2921000D03*
G01*
X2806700Y-3175000D03*
G01*
X2552700Y-2921000D03*
G01*
X2552700Y-3175000D03*
G01*
X2298700Y-2921000D03*
G01*
X2298700Y-3175000D03*
G01*
X2044700Y-2921000D03*
G01*
X2044700Y-3175000D03*
G01*
X1790700Y-2921000D03*
G01*
X1790700Y-3175000D03*
G01*
X1536700Y-2921000D03*
G01*
X1536700Y-3175000D03*
D14*
G01*
X1651000Y-3695700D03*
D16*
G01*
X1905000Y-3695700D03*
D17*
G01*
X9232900Y5562600D03*
G01*
X9232900Y5753100D03*
G01*
X9232900Y5943600D03*
D18*
G01*
X6648450Y4165600D03*
G01*
X6394450Y4165600D03*
G01*
X6153150Y4165600D03*
G01*
X5899150Y4165600D03*
G01*
X5632450Y4165600D03*
G01*
X5378450Y4165600D03*
G01*
X5137150Y4165600D03*
G01*
X4883150Y4165600D03*
G01*
X4629150Y4165600D03*
G01*
X4375150Y4165600D03*
G01*
X7543800Y4546600D03*
G01*
X7543800Y4292600D03*
G01*
X7543800Y4038600D03*
D19*
G01*
X1282700Y6515100D03*
G01*
X1282700Y6261100D03*
G01*
X1282700Y6007100D03*
G01*
X1282700Y5753100D03*
G01*
X1282700Y5499100D03*
G01*
X1282700Y5245100D03*
D20*
G01*
X6997700Y6807200D03*
G01*
X6997700Y4902200D03*
D18*
G01*
X3848100Y3213100D03*
G01*
X3594100Y3213100D03*
G01*
X3340100Y3213100D03*
G01*
X3086100Y3213100D03*
M02*
