G04 Layer: TopLayer*
G04 EasyEDA v6.5.51, 2026-03-13 16:17:01*
G04 3a29f5427acf447d8b5b9ab7626d35c2,10*
G04 Gerber Generator version 0.2*
G04 Scale: 100 percent, Rotated: No, Reflected: No *
G04 Dimensions in millimeters *
G04 leading zeros omitted , absolute positions ,4 integer and 5 decimal *
%FSLAX45Y45*%
%MOMM*%

%AMMACRO1*4,1,4,0.8499,-1,-0.8499,-1,-0.8499,1,0.8499,1,0.8499,-1,0*%
%ADD10C,2.5000*%
%ADD11MACRO1*%
%ADD12R,1.5748X1.8000*%
%ADD13C,1.8000*%
%ADD14R,2.0000X2.0000*%
%ADD15C,2.0000*%
%ADD16C,1.2000*%
%ADD17C,1.5240*%
%ADD18C,0.0128*%
%ADD19C,1.4079*%
%ADD20C,3.5159*%

%LPD*%
G36*
X736092Y-3974084D02*
G01*
X732180Y-3973322D01*
X728929Y-3971086D01*
X726694Y-3967835D01*
X725932Y-3963924D01*
X725932Y7263892D01*
X726694Y7267803D01*
X728929Y7271054D01*
X732180Y7273290D01*
X736092Y7274052D01*
X9663938Y7274052D01*
X9667849Y7273290D01*
X9671151Y7271054D01*
X9673336Y7267803D01*
X9674098Y7263892D01*
X9677146Y2576068D01*
X9676333Y2572207D01*
X9674148Y2568905D01*
X9670846Y2566670D01*
X9666986Y2565908D01*
X7112609Y2565908D01*
X7106107Y2565095D01*
X7100570Y2563012D01*
X7095439Y2559456D01*
X7092391Y2556459D01*
X7089749Y2552852D01*
X7087260Y2547315D01*
X7086092Y2539847D01*
X7086092Y-3963924D01*
X7085330Y-3967835D01*
X7083094Y-3971086D01*
X7079843Y-3973322D01*
X7075931Y-3974084D01*
G37*

%LPC*%
G36*
X3393795Y-3821633D02*
G01*
X3562604Y-3821633D01*
X3568954Y-3820871D01*
X3574389Y-3818991D01*
X3579317Y-3815892D01*
X3583381Y-3811828D01*
X3586479Y-3806901D01*
X3588359Y-3801465D01*
X3589121Y-3795115D01*
X3589121Y-3596284D01*
X3588359Y-3589934D01*
X3586479Y-3584498D01*
X3583381Y-3579571D01*
X3579317Y-3575507D01*
X3574389Y-3572408D01*
X3568954Y-3570528D01*
X3562604Y-3569817D01*
X3393795Y-3569817D01*
X3387445Y-3570528D01*
X3382010Y-3572408D01*
X3377082Y-3575507D01*
X3373018Y-3579571D01*
X3369919Y-3584498D01*
X3368040Y-3589934D01*
X3367328Y-3596284D01*
X3367328Y-3795115D01*
X3368040Y-3801465D01*
X3369919Y-3806901D01*
X3373018Y-3811828D01*
X3377082Y-3815892D01*
X3382010Y-3818991D01*
X3387445Y-3820871D01*
G37*
G36*
X1551584Y-3821633D02*
G01*
X1750415Y-3821633D01*
X1756765Y-3820871D01*
X1762201Y-3818991D01*
X1767128Y-3815892D01*
X1771192Y-3811828D01*
X1774291Y-3806901D01*
X1776171Y-3801465D01*
X1776933Y-3795115D01*
X1776933Y-3763162D01*
X1777847Y-3758895D01*
X1780489Y-3755390D01*
X1784350Y-3753358D01*
X1788718Y-3753104D01*
X1792732Y-3754729D01*
X1795780Y-3757879D01*
X1801418Y-3767226D01*
X1810766Y-3779164D01*
X1821535Y-3789934D01*
X1833473Y-3799281D01*
X1846478Y-3807155D01*
X1848662Y-3808120D01*
X1848662Y-3752037D01*
X1787093Y-3752037D01*
X1783181Y-3751275D01*
X1779879Y-3749090D01*
X1777695Y-3745788D01*
X1776933Y-3741877D01*
X1776933Y-3649522D01*
X1777695Y-3645611D01*
X1779879Y-3642309D01*
X1783181Y-3640124D01*
X1787093Y-3639362D01*
X1848662Y-3639362D01*
X1848662Y-3583279D01*
X1846478Y-3584244D01*
X1833473Y-3592118D01*
X1821535Y-3601465D01*
X1810766Y-3612235D01*
X1801418Y-3624173D01*
X1795780Y-3633520D01*
X1792732Y-3636670D01*
X1788718Y-3638296D01*
X1784350Y-3638042D01*
X1780489Y-3636010D01*
X1777847Y-3632504D01*
X1776933Y-3628237D01*
X1776933Y-3596284D01*
X1776171Y-3589934D01*
X1774291Y-3584498D01*
X1771192Y-3579571D01*
X1767128Y-3575507D01*
X1762201Y-3572408D01*
X1756765Y-3570528D01*
X1750415Y-3569817D01*
X1551584Y-3569817D01*
X1545234Y-3570528D01*
X1539798Y-3572408D01*
X1534871Y-3575507D01*
X1530807Y-3579571D01*
X1527708Y-3584498D01*
X1525828Y-3589934D01*
X1525117Y-3596284D01*
X1525117Y-3795115D01*
X1525828Y-3801465D01*
X1527708Y-3806901D01*
X1530807Y-3811828D01*
X1534871Y-3815892D01*
X1539798Y-3818991D01*
X1545234Y-3820871D01*
G37*
G36*
X2711196Y-3821429D02*
G01*
X2721203Y-3821429D01*
X2725064Y-3821176D01*
X2735021Y-3819956D01*
X2738932Y-3819194D01*
X2748635Y-3816705D01*
X2752242Y-3815537D01*
X2761589Y-3811828D01*
X2765196Y-3810152D01*
X2773984Y-3805326D01*
X2777236Y-3803243D01*
X2785364Y-3797350D01*
X2788361Y-3794861D01*
X2795676Y-3787952D01*
X2798267Y-3785158D01*
X2804668Y-3777437D01*
X2807004Y-3774338D01*
X2812389Y-3765854D01*
X2814320Y-3762298D01*
X2818536Y-3753205D01*
X2819958Y-3749700D01*
X2823057Y-3740150D01*
X2824022Y-3736390D01*
X2825902Y-3726535D01*
X2826410Y-3722674D01*
X2827121Y-3710432D01*
X2827121Y-3680968D01*
X2826410Y-3668725D01*
X2825902Y-3664864D01*
X2824022Y-3655009D01*
X2823057Y-3651250D01*
X2819958Y-3641699D01*
X2818536Y-3638194D01*
X2814320Y-3629101D01*
X2812389Y-3625545D01*
X2807004Y-3617061D01*
X2804668Y-3613962D01*
X2798267Y-3606241D01*
X2795676Y-3603447D01*
X2788361Y-3596538D01*
X2785364Y-3594049D01*
X2777236Y-3588156D01*
X2773984Y-3586073D01*
X2765196Y-3581247D01*
X2761589Y-3579571D01*
X2752242Y-3575862D01*
X2748635Y-3574694D01*
X2738932Y-3572205D01*
X2735021Y-3571443D01*
X2725064Y-3570224D01*
X2721203Y-3569970D01*
X2711196Y-3569970D01*
X2707335Y-3570224D01*
X2697378Y-3571443D01*
X2693466Y-3572205D01*
X2683764Y-3574694D01*
X2680157Y-3575862D01*
X2670810Y-3579571D01*
X2667203Y-3581247D01*
X2658414Y-3586073D01*
X2655163Y-3588156D01*
X2647035Y-3594049D01*
X2644038Y-3596538D01*
X2636723Y-3603447D01*
X2634132Y-3606241D01*
X2627731Y-3613912D01*
X2625394Y-3617112D01*
X2620010Y-3625596D01*
X2618130Y-3628999D01*
X2613863Y-3638143D01*
X2612440Y-3641699D01*
X2609342Y-3651250D01*
X2608376Y-3655009D01*
X2606497Y-3664864D01*
X2605989Y-3668725D01*
X2605328Y-3680968D01*
X2605328Y-3710432D01*
X2605989Y-3722674D01*
X2606497Y-3726535D01*
X2608376Y-3736390D01*
X2609342Y-3740150D01*
X2612440Y-3749700D01*
X2613863Y-3753256D01*
X2618130Y-3762400D01*
X2620010Y-3765804D01*
X2625394Y-3774287D01*
X2627731Y-3777487D01*
X2634132Y-3785158D01*
X2636723Y-3787952D01*
X2644038Y-3794861D01*
X2647035Y-3797350D01*
X2655163Y-3803243D01*
X2658414Y-3805326D01*
X2667203Y-3810152D01*
X2670810Y-3811828D01*
X2680157Y-3815537D01*
X2683764Y-3816705D01*
X2693466Y-3819194D01*
X2697378Y-3819956D01*
X2707335Y-3821176D01*
G37*
G36*
X3219196Y-3821429D02*
G01*
X3229203Y-3821429D01*
X3233064Y-3821176D01*
X3243021Y-3819956D01*
X3246932Y-3819194D01*
X3256635Y-3816705D01*
X3260242Y-3815537D01*
X3269589Y-3811828D01*
X3273196Y-3810152D01*
X3281984Y-3805326D01*
X3285236Y-3803243D01*
X3293364Y-3797350D01*
X3296361Y-3794861D01*
X3303676Y-3787952D01*
X3306267Y-3785158D01*
X3312668Y-3777437D01*
X3315004Y-3774338D01*
X3320389Y-3765854D01*
X3322320Y-3762298D01*
X3326536Y-3753205D01*
X3327958Y-3749700D01*
X3331057Y-3740150D01*
X3332022Y-3736390D01*
X3333902Y-3726535D01*
X3334410Y-3722674D01*
X3335121Y-3710432D01*
X3335121Y-3680968D01*
X3334410Y-3668725D01*
X3333902Y-3664864D01*
X3332022Y-3655009D01*
X3331057Y-3651250D01*
X3327958Y-3641699D01*
X3326536Y-3638194D01*
X3322320Y-3629101D01*
X3320389Y-3625545D01*
X3315004Y-3617061D01*
X3312668Y-3613962D01*
X3306267Y-3606241D01*
X3303676Y-3603447D01*
X3296361Y-3596538D01*
X3293364Y-3594049D01*
X3285236Y-3588156D01*
X3281984Y-3586073D01*
X3273196Y-3581247D01*
X3269589Y-3579571D01*
X3260242Y-3575862D01*
X3256635Y-3574694D01*
X3246932Y-3572205D01*
X3243021Y-3571443D01*
X3233064Y-3570224D01*
X3229203Y-3569970D01*
X3219196Y-3569970D01*
X3215335Y-3570224D01*
X3205378Y-3571443D01*
X3201466Y-3572205D01*
X3191764Y-3574694D01*
X3188157Y-3575862D01*
X3178810Y-3579571D01*
X3175203Y-3581247D01*
X3166414Y-3586073D01*
X3163163Y-3588156D01*
X3155035Y-3594049D01*
X3152038Y-3596538D01*
X3144723Y-3603447D01*
X3142132Y-3606241D01*
X3135731Y-3613962D01*
X3133394Y-3617061D01*
X3128010Y-3625545D01*
X3126079Y-3629101D01*
X3121863Y-3638194D01*
X3120440Y-3641699D01*
X3117342Y-3651250D01*
X3116376Y-3655009D01*
X3114497Y-3664864D01*
X3113989Y-3668725D01*
X3113328Y-3680968D01*
X3113328Y-3710432D01*
X3113989Y-3722674D01*
X3114497Y-3726535D01*
X3116376Y-3736390D01*
X3117342Y-3740150D01*
X3120440Y-3749700D01*
X3121863Y-3753205D01*
X3126079Y-3762298D01*
X3128010Y-3765854D01*
X3133394Y-3774338D01*
X3135731Y-3777437D01*
X3142132Y-3785158D01*
X3144723Y-3787952D01*
X3152038Y-3794861D01*
X3155035Y-3797350D01*
X3163163Y-3803243D01*
X3166414Y-3805326D01*
X3175203Y-3810152D01*
X3178810Y-3811828D01*
X3188157Y-3815537D01*
X3191764Y-3816705D01*
X3201466Y-3819194D01*
X3205378Y-3819956D01*
X3215335Y-3821176D01*
G37*
G36*
X2921355Y-3810203D02*
G01*
X2921355Y-3751986D01*
X2867355Y-3751986D01*
X2872130Y-3762400D01*
X2874010Y-3765804D01*
X2879394Y-3774287D01*
X2881731Y-3777487D01*
X2888132Y-3785158D01*
X2890723Y-3787952D01*
X2898038Y-3794861D01*
X2901035Y-3797350D01*
X2909163Y-3803243D01*
X2912414Y-3805326D01*
G37*
G36*
X3019044Y-3810203D02*
G01*
X3027984Y-3805326D01*
X3031236Y-3803243D01*
X3039364Y-3797350D01*
X3042361Y-3794861D01*
X3049676Y-3787952D01*
X3052267Y-3785158D01*
X3058668Y-3777437D01*
X3061004Y-3774338D01*
X3066389Y-3765854D01*
X3068320Y-3762298D01*
X3073044Y-3751986D01*
X3019044Y-3751986D01*
G37*
G36*
X1961337Y-3808120D02*
G01*
X1963521Y-3807155D01*
X1976526Y-3799281D01*
X1988464Y-3789934D01*
X1999234Y-3779164D01*
X2008581Y-3767226D01*
X2016455Y-3754221D01*
X2017420Y-3752037D01*
X1961337Y-3752037D01*
G37*
G36*
X5204663Y-3780840D02*
G01*
X5223205Y-3779367D01*
X5241544Y-3776065D01*
X5259425Y-3770833D01*
X5276697Y-3763822D01*
X5293106Y-3755085D01*
X5308549Y-3744671D01*
X5322874Y-3732733D01*
X5335879Y-3719423D01*
X5347411Y-3704793D01*
X5357418Y-3689096D01*
X5365750Y-3672433D01*
X5372303Y-3655009D01*
X5377078Y-3636975D01*
X5379923Y-3618585D01*
X5380888Y-3599992D01*
X5379923Y-3581400D01*
X5377078Y-3563010D01*
X5372303Y-3544976D01*
X5365750Y-3527551D01*
X5357418Y-3510889D01*
X5347411Y-3495192D01*
X5335879Y-3480562D01*
X5322874Y-3467252D01*
X5308549Y-3455314D01*
X5293106Y-3444900D01*
X5276697Y-3436162D01*
X5259425Y-3429152D01*
X5241544Y-3423920D01*
X5223205Y-3420618D01*
X5204663Y-3419144D01*
X5186019Y-3419652D01*
X5167579Y-3422040D01*
X5149443Y-3426307D01*
X5131816Y-3432403D01*
X5114950Y-3440328D01*
X5098999Y-3449929D01*
X5084114Y-3461105D01*
X5070449Y-3473754D01*
X5058156Y-3487724D01*
X5047335Y-3502914D01*
X5038191Y-3519119D01*
X5030724Y-3536187D01*
X5025034Y-3553917D01*
X5021224Y-3572154D01*
X5019344Y-3590696D01*
X5019344Y-3609289D01*
X5021224Y-3627831D01*
X5025034Y-3646068D01*
X5030724Y-3663797D01*
X5038191Y-3680866D01*
X5047335Y-3697071D01*
X5058156Y-3712260D01*
X5070449Y-3726230D01*
X5084114Y-3738879D01*
X5098999Y-3750056D01*
X5114950Y-3759657D01*
X5131816Y-3767582D01*
X5149443Y-3773678D01*
X5167579Y-3777945D01*
X5186019Y-3780332D01*
G37*
G36*
X2867355Y-3639464D02*
G01*
X2921355Y-3639464D01*
X2921355Y-3581196D01*
X2912414Y-3586073D01*
X2909163Y-3588156D01*
X2901035Y-3594049D01*
X2898038Y-3596538D01*
X2890723Y-3603447D01*
X2888132Y-3606241D01*
X2881731Y-3613912D01*
X2879394Y-3617112D01*
X2874010Y-3625596D01*
X2872130Y-3628999D01*
G37*
G36*
X3019044Y-3639464D02*
G01*
X3073044Y-3639464D01*
X3068320Y-3629101D01*
X3066389Y-3625545D01*
X3061004Y-3617061D01*
X3058668Y-3613962D01*
X3052267Y-3606241D01*
X3049676Y-3603447D01*
X3042361Y-3596538D01*
X3039364Y-3594049D01*
X3031236Y-3588156D01*
X3027984Y-3586073D01*
X3019044Y-3581196D01*
G37*
G36*
X1961337Y-3639362D02*
G01*
X2017420Y-3639362D01*
X2016455Y-3637178D01*
X2008581Y-3624173D01*
X1999234Y-3612235D01*
X1988464Y-3601465D01*
X1976526Y-3592118D01*
X1963521Y-3584244D01*
X1961337Y-3583279D01*
G37*
G36*
X1529435Y-3290671D02*
G01*
X1543964Y-3290671D01*
X1558391Y-3288842D01*
X1572514Y-3285236D01*
X1586026Y-3279851D01*
X1598777Y-3272840D01*
X1610563Y-3264306D01*
X1621180Y-3254349D01*
X1630476Y-3243122D01*
X1638249Y-3230829D01*
X1644446Y-3217672D01*
X1648968Y-3203803D01*
X1651660Y-3189528D01*
X1652574Y-3175000D01*
X1651660Y-3160471D01*
X1648968Y-3146196D01*
X1644446Y-3132328D01*
X1638249Y-3119170D01*
X1630476Y-3106877D01*
X1621180Y-3095650D01*
X1610563Y-3085693D01*
X1598777Y-3077159D01*
X1586026Y-3070148D01*
X1572514Y-3064764D01*
X1558391Y-3061157D01*
X1543964Y-3059328D01*
X1529435Y-3059328D01*
X1515008Y-3061157D01*
X1500886Y-3064764D01*
X1487373Y-3070148D01*
X1474622Y-3077159D01*
X1462836Y-3085693D01*
X1452219Y-3095650D01*
X1442923Y-3106877D01*
X1435150Y-3119170D01*
X1428953Y-3132328D01*
X1424432Y-3146196D01*
X1421739Y-3160471D01*
X1420825Y-3175000D01*
X1421739Y-3189528D01*
X1424432Y-3203803D01*
X1428953Y-3217672D01*
X1435150Y-3230829D01*
X1442923Y-3243122D01*
X1452219Y-3254349D01*
X1462836Y-3264306D01*
X1474622Y-3272840D01*
X1487373Y-3279851D01*
X1500886Y-3285236D01*
X1515008Y-3288842D01*
G37*
G36*
X1783435Y-3290671D02*
G01*
X1797964Y-3290671D01*
X1812391Y-3288842D01*
X1826514Y-3285236D01*
X1840026Y-3279851D01*
X1852777Y-3272840D01*
X1864563Y-3264306D01*
X1875180Y-3254349D01*
X1884476Y-3243122D01*
X1892249Y-3230829D01*
X1898446Y-3217672D01*
X1902968Y-3203803D01*
X1905660Y-3189528D01*
X1906574Y-3175000D01*
X1905660Y-3160471D01*
X1902968Y-3146196D01*
X1898446Y-3132328D01*
X1892249Y-3119170D01*
X1884476Y-3106877D01*
X1875180Y-3095650D01*
X1864563Y-3085693D01*
X1852777Y-3077159D01*
X1840026Y-3070148D01*
X1826514Y-3064764D01*
X1812391Y-3061157D01*
X1797964Y-3059328D01*
X1783435Y-3059328D01*
X1769008Y-3061157D01*
X1754886Y-3064764D01*
X1741373Y-3070148D01*
X1728622Y-3077159D01*
X1716836Y-3085693D01*
X1706219Y-3095650D01*
X1696923Y-3106877D01*
X1689150Y-3119170D01*
X1682953Y-3132328D01*
X1678432Y-3146196D01*
X1675739Y-3160471D01*
X1674825Y-3175000D01*
X1675739Y-3189528D01*
X1678432Y-3203803D01*
X1682953Y-3217672D01*
X1689150Y-3230829D01*
X1696923Y-3243122D01*
X1706219Y-3254349D01*
X1716836Y-3264306D01*
X1728622Y-3272840D01*
X1741373Y-3279851D01*
X1754886Y-3285236D01*
X1769008Y-3288842D01*
G37*
G36*
X4323435Y-3290671D02*
G01*
X4337964Y-3290671D01*
X4352391Y-3288842D01*
X4366514Y-3285236D01*
X4380026Y-3279851D01*
X4392777Y-3272840D01*
X4404563Y-3264306D01*
X4415180Y-3254349D01*
X4424476Y-3243122D01*
X4432249Y-3230829D01*
X4438446Y-3217672D01*
X4442968Y-3203803D01*
X4445660Y-3189528D01*
X4446574Y-3175000D01*
X4445660Y-3160471D01*
X4442968Y-3146196D01*
X4438446Y-3132328D01*
X4432249Y-3119170D01*
X4424476Y-3106877D01*
X4415180Y-3095650D01*
X4404563Y-3085693D01*
X4392777Y-3077159D01*
X4380026Y-3070148D01*
X4366514Y-3064764D01*
X4352391Y-3061157D01*
X4337964Y-3059328D01*
X4323435Y-3059328D01*
X4309008Y-3061157D01*
X4294886Y-3064764D01*
X4281373Y-3070148D01*
X4268622Y-3077159D01*
X4256836Y-3085693D01*
X4246219Y-3095650D01*
X4236923Y-3106877D01*
X4229150Y-3119170D01*
X4222953Y-3132328D01*
X4218432Y-3146196D01*
X4215739Y-3160471D01*
X4214825Y-3175000D01*
X4215739Y-3189528D01*
X4218432Y-3203803D01*
X4222953Y-3217672D01*
X4229150Y-3230829D01*
X4236923Y-3243122D01*
X4246219Y-3254349D01*
X4256836Y-3264306D01*
X4268622Y-3272840D01*
X4281373Y-3279851D01*
X4294886Y-3285236D01*
X4309008Y-3288842D01*
G37*
G36*
X3561435Y-3290671D02*
G01*
X3575964Y-3290671D01*
X3590391Y-3288842D01*
X3604514Y-3285236D01*
X3618026Y-3279851D01*
X3630777Y-3272840D01*
X3642563Y-3264306D01*
X3653180Y-3254349D01*
X3662476Y-3243122D01*
X3670249Y-3230829D01*
X3676446Y-3217672D01*
X3680968Y-3203803D01*
X3683660Y-3189528D01*
X3684574Y-3175000D01*
X3683660Y-3160471D01*
X3680968Y-3146196D01*
X3676446Y-3132328D01*
X3670249Y-3119170D01*
X3662476Y-3106877D01*
X3653180Y-3095650D01*
X3642563Y-3085693D01*
X3630777Y-3077159D01*
X3618026Y-3070148D01*
X3604514Y-3064764D01*
X3590391Y-3061157D01*
X3575964Y-3059328D01*
X3561435Y-3059328D01*
X3547008Y-3061157D01*
X3532886Y-3064764D01*
X3519373Y-3070148D01*
X3506622Y-3077159D01*
X3494836Y-3085693D01*
X3484219Y-3095650D01*
X3474923Y-3106877D01*
X3467150Y-3119170D01*
X3460953Y-3132328D01*
X3456432Y-3146196D01*
X3453739Y-3160471D01*
X3452825Y-3175000D01*
X3453739Y-3189528D01*
X3456432Y-3203803D01*
X3460953Y-3217672D01*
X3467150Y-3230829D01*
X3474923Y-3243122D01*
X3484219Y-3254349D01*
X3494836Y-3264306D01*
X3506622Y-3272840D01*
X3519373Y-3279851D01*
X3532886Y-3285236D01*
X3547008Y-3288842D01*
G37*
G36*
X3307435Y-3290671D02*
G01*
X3321964Y-3290671D01*
X3336391Y-3288842D01*
X3350514Y-3285236D01*
X3364026Y-3279851D01*
X3376777Y-3272840D01*
X3388563Y-3264306D01*
X3399180Y-3254349D01*
X3408476Y-3243122D01*
X3416249Y-3230829D01*
X3422446Y-3217672D01*
X3426968Y-3203803D01*
X3429660Y-3189528D01*
X3430574Y-3175000D01*
X3429660Y-3160471D01*
X3426968Y-3146196D01*
X3422446Y-3132328D01*
X3416249Y-3119170D01*
X3408476Y-3106877D01*
X3399180Y-3095650D01*
X3388563Y-3085693D01*
X3376777Y-3077159D01*
X3364026Y-3070148D01*
X3350514Y-3064764D01*
X3336391Y-3061157D01*
X3321964Y-3059328D01*
X3307435Y-3059328D01*
X3293008Y-3061157D01*
X3278886Y-3064764D01*
X3265373Y-3070148D01*
X3252622Y-3077159D01*
X3240836Y-3085693D01*
X3230219Y-3095650D01*
X3220923Y-3106877D01*
X3213150Y-3119170D01*
X3206953Y-3132328D01*
X3202432Y-3146196D01*
X3199739Y-3160471D01*
X3198825Y-3175000D01*
X3199739Y-3189528D01*
X3202432Y-3203803D01*
X3206953Y-3217672D01*
X3213150Y-3230829D01*
X3220923Y-3243122D01*
X3230219Y-3254349D01*
X3240836Y-3264306D01*
X3252622Y-3272840D01*
X3265373Y-3279851D01*
X3278886Y-3285236D01*
X3293008Y-3288842D01*
G37*
G36*
X2545435Y-3290671D02*
G01*
X2559964Y-3290671D01*
X2574391Y-3288842D01*
X2588514Y-3285236D01*
X2602026Y-3279851D01*
X2614777Y-3272840D01*
X2626563Y-3264306D01*
X2637180Y-3254349D01*
X2646476Y-3243122D01*
X2654249Y-3230829D01*
X2660446Y-3217672D01*
X2664968Y-3203803D01*
X2667660Y-3189528D01*
X2668574Y-3175000D01*
X2667660Y-3160471D01*
X2664968Y-3146196D01*
X2660446Y-3132328D01*
X2654249Y-3119170D01*
X2646476Y-3106877D01*
X2637180Y-3095650D01*
X2626563Y-3085693D01*
X2614777Y-3077159D01*
X2602026Y-3070148D01*
X2588514Y-3064764D01*
X2574391Y-3061157D01*
X2559964Y-3059328D01*
X2545435Y-3059328D01*
X2531008Y-3061157D01*
X2516886Y-3064764D01*
X2503373Y-3070148D01*
X2490622Y-3077159D01*
X2478836Y-3085693D01*
X2468219Y-3095650D01*
X2458923Y-3106877D01*
X2451150Y-3119170D01*
X2444953Y-3132328D01*
X2440432Y-3146196D01*
X2437739Y-3160471D01*
X2436825Y-3175000D01*
X2437739Y-3189528D01*
X2440432Y-3203803D01*
X2444953Y-3217672D01*
X2451150Y-3230829D01*
X2458923Y-3243122D01*
X2468219Y-3254349D01*
X2478836Y-3264306D01*
X2490622Y-3272840D01*
X2503373Y-3279851D01*
X2516886Y-3285236D01*
X2531008Y-3288842D01*
G37*
G36*
X4069435Y-3290671D02*
G01*
X4083964Y-3290671D01*
X4098391Y-3288842D01*
X4112514Y-3285236D01*
X4126026Y-3279851D01*
X4138777Y-3272840D01*
X4150563Y-3264306D01*
X4161180Y-3254349D01*
X4170476Y-3243122D01*
X4178249Y-3230829D01*
X4184446Y-3217672D01*
X4188968Y-3203803D01*
X4191660Y-3189528D01*
X4192574Y-3175000D01*
X4191660Y-3160471D01*
X4188968Y-3146196D01*
X4184446Y-3132328D01*
X4178249Y-3119170D01*
X4170476Y-3106877D01*
X4161180Y-3095650D01*
X4150563Y-3085693D01*
X4138777Y-3077159D01*
X4126026Y-3070148D01*
X4112514Y-3064764D01*
X4098391Y-3061157D01*
X4083964Y-3059328D01*
X4069435Y-3059328D01*
X4055008Y-3061157D01*
X4040886Y-3064764D01*
X4027373Y-3070148D01*
X4014622Y-3077159D01*
X4002836Y-3085693D01*
X3992219Y-3095650D01*
X3982923Y-3106877D01*
X3975150Y-3119170D01*
X3968953Y-3132328D01*
X3964432Y-3146196D01*
X3961739Y-3160471D01*
X3960825Y-3175000D01*
X3961739Y-3189528D01*
X3964432Y-3203803D01*
X3968953Y-3217672D01*
X3975150Y-3230829D01*
X3982923Y-3243122D01*
X3992219Y-3254349D01*
X4002836Y-3264306D01*
X4014622Y-3272840D01*
X4027373Y-3279851D01*
X4040886Y-3285236D01*
X4055008Y-3288842D01*
G37*
G36*
X5339435Y-3290671D02*
G01*
X5353964Y-3290671D01*
X5368391Y-3288842D01*
X5382514Y-3285236D01*
X5396026Y-3279851D01*
X5408777Y-3272840D01*
X5420563Y-3264306D01*
X5431180Y-3254349D01*
X5440476Y-3243122D01*
X5448249Y-3230829D01*
X5454446Y-3217672D01*
X5458968Y-3203803D01*
X5461660Y-3189528D01*
X5462574Y-3175000D01*
X5461660Y-3160471D01*
X5458968Y-3146196D01*
X5454446Y-3132328D01*
X5448249Y-3119170D01*
X5440476Y-3106877D01*
X5431180Y-3095650D01*
X5420563Y-3085693D01*
X5408777Y-3077159D01*
X5396026Y-3070148D01*
X5382514Y-3064764D01*
X5368391Y-3061157D01*
X5353964Y-3059328D01*
X5339435Y-3059328D01*
X5325008Y-3061157D01*
X5310886Y-3064764D01*
X5297373Y-3070148D01*
X5284622Y-3077159D01*
X5272836Y-3085693D01*
X5262219Y-3095650D01*
X5252923Y-3106877D01*
X5245150Y-3119170D01*
X5238953Y-3132328D01*
X5234432Y-3146196D01*
X5231739Y-3160471D01*
X5230825Y-3175000D01*
X5231739Y-3189528D01*
X5234432Y-3203803D01*
X5238953Y-3217672D01*
X5245150Y-3230829D01*
X5252923Y-3243122D01*
X5262219Y-3254349D01*
X5272836Y-3264306D01*
X5284622Y-3272840D01*
X5297373Y-3279851D01*
X5310886Y-3285236D01*
X5325008Y-3288842D01*
G37*
G36*
X4577435Y-3290671D02*
G01*
X4591964Y-3290671D01*
X4606391Y-3288842D01*
X4620514Y-3285236D01*
X4634026Y-3279851D01*
X4646777Y-3272840D01*
X4658563Y-3264306D01*
X4669180Y-3254349D01*
X4678476Y-3243122D01*
X4686249Y-3230829D01*
X4692446Y-3217672D01*
X4696968Y-3203803D01*
X4699660Y-3189528D01*
X4700574Y-3175000D01*
X4699660Y-3160471D01*
X4696968Y-3146196D01*
X4692446Y-3132328D01*
X4686249Y-3119170D01*
X4678476Y-3106877D01*
X4669180Y-3095650D01*
X4658563Y-3085693D01*
X4646777Y-3077159D01*
X4634026Y-3070148D01*
X4620514Y-3064764D01*
X4606391Y-3061157D01*
X4591964Y-3059328D01*
X4577435Y-3059328D01*
X4563008Y-3061157D01*
X4548886Y-3064764D01*
X4535373Y-3070148D01*
X4522622Y-3077159D01*
X4510836Y-3085693D01*
X4500219Y-3095650D01*
X4490923Y-3106877D01*
X4483150Y-3119170D01*
X4476953Y-3132328D01*
X4472432Y-3146196D01*
X4469739Y-3160471D01*
X4468825Y-3175000D01*
X4469739Y-3189528D01*
X4472432Y-3203803D01*
X4476953Y-3217672D01*
X4483150Y-3230829D01*
X4490923Y-3243122D01*
X4500219Y-3254349D01*
X4510836Y-3264306D01*
X4522622Y-3272840D01*
X4535373Y-3279851D01*
X4548886Y-3285236D01*
X4563008Y-3288842D01*
G37*
G36*
X4831435Y-3290671D02*
G01*
X4845964Y-3290671D01*
X4860391Y-3288842D01*
X4874514Y-3285236D01*
X4888026Y-3279851D01*
X4900777Y-3272840D01*
X4912563Y-3264306D01*
X4923180Y-3254349D01*
X4932476Y-3243122D01*
X4940249Y-3230829D01*
X4946446Y-3217672D01*
X4950968Y-3203803D01*
X4953660Y-3189528D01*
X4954574Y-3175000D01*
X4953660Y-3160471D01*
X4950968Y-3146196D01*
X4946446Y-3132328D01*
X4940249Y-3119170D01*
X4932476Y-3106877D01*
X4923180Y-3095650D01*
X4912563Y-3085693D01*
X4900777Y-3077159D01*
X4888026Y-3070148D01*
X4874514Y-3064764D01*
X4860391Y-3061157D01*
X4845964Y-3059328D01*
X4831435Y-3059328D01*
X4817008Y-3061157D01*
X4802886Y-3064764D01*
X4789373Y-3070148D01*
X4776622Y-3077159D01*
X4764836Y-3085693D01*
X4754219Y-3095650D01*
X4744923Y-3106877D01*
X4737150Y-3119170D01*
X4730953Y-3132328D01*
X4726432Y-3146196D01*
X4723739Y-3160471D01*
X4722825Y-3175000D01*
X4723739Y-3189528D01*
X4726432Y-3203803D01*
X4730953Y-3217672D01*
X4737150Y-3230829D01*
X4744923Y-3243122D01*
X4754219Y-3254349D01*
X4764836Y-3264306D01*
X4776622Y-3272840D01*
X4789373Y-3279851D01*
X4802886Y-3285236D01*
X4817008Y-3288842D01*
G37*
G36*
X2291435Y-3290671D02*
G01*
X2305964Y-3290671D01*
X2320391Y-3288842D01*
X2334514Y-3285236D01*
X2348026Y-3279851D01*
X2360777Y-3272840D01*
X2372563Y-3264306D01*
X2383180Y-3254349D01*
X2392476Y-3243122D01*
X2400249Y-3230829D01*
X2406446Y-3217672D01*
X2410968Y-3203803D01*
X2413660Y-3189528D01*
X2414574Y-3175000D01*
X2413660Y-3160471D01*
X2410968Y-3146196D01*
X2406446Y-3132328D01*
X2400249Y-3119170D01*
X2392476Y-3106877D01*
X2383180Y-3095650D01*
X2372563Y-3085693D01*
X2360777Y-3077159D01*
X2348026Y-3070148D01*
X2334514Y-3064764D01*
X2320391Y-3061157D01*
X2305964Y-3059328D01*
X2291435Y-3059328D01*
X2277008Y-3061157D01*
X2262886Y-3064764D01*
X2249373Y-3070148D01*
X2236622Y-3077159D01*
X2224836Y-3085693D01*
X2214219Y-3095650D01*
X2204923Y-3106877D01*
X2197150Y-3119170D01*
X2190953Y-3132328D01*
X2186432Y-3146196D01*
X2183739Y-3160471D01*
X2182825Y-3175000D01*
X2183739Y-3189528D01*
X2186432Y-3203803D01*
X2190953Y-3217672D01*
X2197150Y-3230829D01*
X2204923Y-3243122D01*
X2214219Y-3254349D01*
X2224836Y-3264306D01*
X2236622Y-3272840D01*
X2249373Y-3279851D01*
X2262886Y-3285236D01*
X2277008Y-3288842D01*
G37*
G36*
X5847435Y-3290671D02*
G01*
X5861964Y-3290671D01*
X5876391Y-3288842D01*
X5890514Y-3285236D01*
X5904026Y-3279851D01*
X5916777Y-3272840D01*
X5928563Y-3264306D01*
X5939180Y-3254349D01*
X5948476Y-3243122D01*
X5956249Y-3230829D01*
X5962446Y-3217672D01*
X5966968Y-3203803D01*
X5969660Y-3189528D01*
X5970574Y-3175000D01*
X5969660Y-3160471D01*
X5966968Y-3146196D01*
X5962446Y-3132328D01*
X5956249Y-3119170D01*
X5948476Y-3106877D01*
X5939180Y-3095650D01*
X5928563Y-3085693D01*
X5916777Y-3077159D01*
X5904026Y-3070148D01*
X5890514Y-3064764D01*
X5876391Y-3061157D01*
X5861964Y-3059328D01*
X5847435Y-3059328D01*
X5833008Y-3061157D01*
X5818886Y-3064764D01*
X5805373Y-3070148D01*
X5792622Y-3077159D01*
X5780836Y-3085693D01*
X5770219Y-3095650D01*
X5760923Y-3106877D01*
X5753150Y-3119170D01*
X5746953Y-3132328D01*
X5742432Y-3146196D01*
X5739739Y-3160471D01*
X5738825Y-3175000D01*
X5739739Y-3189528D01*
X5742432Y-3203803D01*
X5746953Y-3217672D01*
X5753150Y-3230829D01*
X5760923Y-3243122D01*
X5770219Y-3254349D01*
X5780836Y-3264306D01*
X5792622Y-3272840D01*
X5805373Y-3279851D01*
X5818886Y-3285236D01*
X5833008Y-3288842D01*
G37*
G36*
X6101435Y-3290671D02*
G01*
X6115964Y-3290671D01*
X6130391Y-3288842D01*
X6144514Y-3285236D01*
X6158026Y-3279851D01*
X6170777Y-3272840D01*
X6182563Y-3264306D01*
X6193180Y-3254349D01*
X6202476Y-3243122D01*
X6210249Y-3230829D01*
X6216446Y-3217672D01*
X6220968Y-3203803D01*
X6223660Y-3189528D01*
X6224574Y-3175000D01*
X6223660Y-3160471D01*
X6220968Y-3146196D01*
X6216446Y-3132328D01*
X6210249Y-3119170D01*
X6202476Y-3106877D01*
X6193180Y-3095650D01*
X6182563Y-3085693D01*
X6170777Y-3077159D01*
X6158026Y-3070148D01*
X6144514Y-3064764D01*
X6130391Y-3061157D01*
X6115964Y-3059328D01*
X6101435Y-3059328D01*
X6087008Y-3061157D01*
X6072886Y-3064764D01*
X6059373Y-3070148D01*
X6046622Y-3077159D01*
X6034836Y-3085693D01*
X6024219Y-3095650D01*
X6014923Y-3106877D01*
X6007150Y-3119170D01*
X6000953Y-3132328D01*
X5996432Y-3146196D01*
X5993739Y-3160471D01*
X5992825Y-3175000D01*
X5993739Y-3189528D01*
X5996432Y-3203803D01*
X6000953Y-3217672D01*
X6007150Y-3230829D01*
X6014923Y-3243122D01*
X6024219Y-3254349D01*
X6034836Y-3264306D01*
X6046622Y-3272840D01*
X6059373Y-3279851D01*
X6072886Y-3285236D01*
X6087008Y-3288842D01*
G37*
G36*
X2799435Y-3290671D02*
G01*
X2813964Y-3290671D01*
X2828391Y-3288842D01*
X2842514Y-3285236D01*
X2856026Y-3279851D01*
X2868777Y-3272840D01*
X2880563Y-3264306D01*
X2891180Y-3254349D01*
X2900476Y-3243122D01*
X2908249Y-3230829D01*
X2914446Y-3217672D01*
X2918968Y-3203803D01*
X2921660Y-3189528D01*
X2922574Y-3175000D01*
X2921660Y-3160471D01*
X2918968Y-3146196D01*
X2914446Y-3132328D01*
X2908249Y-3119170D01*
X2900476Y-3106877D01*
X2891180Y-3095650D01*
X2880563Y-3085693D01*
X2868777Y-3077159D01*
X2856026Y-3070148D01*
X2842514Y-3064764D01*
X2828391Y-3061157D01*
X2813964Y-3059328D01*
X2799435Y-3059328D01*
X2785008Y-3061157D01*
X2770886Y-3064764D01*
X2757373Y-3070148D01*
X2744622Y-3077159D01*
X2732836Y-3085693D01*
X2722219Y-3095650D01*
X2712923Y-3106877D01*
X2705150Y-3119170D01*
X2698953Y-3132328D01*
X2694432Y-3146196D01*
X2691739Y-3160471D01*
X2690825Y-3175000D01*
X2691739Y-3189528D01*
X2694432Y-3203803D01*
X2698953Y-3217672D01*
X2705150Y-3230829D01*
X2712923Y-3243122D01*
X2722219Y-3254349D01*
X2732836Y-3264306D01*
X2744622Y-3272840D01*
X2757373Y-3279851D01*
X2770886Y-3285236D01*
X2785008Y-3288842D01*
G37*
G36*
X6355435Y-3290671D02*
G01*
X6369964Y-3290671D01*
X6384391Y-3288842D01*
X6398514Y-3285236D01*
X6412026Y-3279851D01*
X6424777Y-3272840D01*
X6436563Y-3264306D01*
X6447180Y-3254349D01*
X6456476Y-3243122D01*
X6464249Y-3230829D01*
X6470446Y-3217672D01*
X6474968Y-3203803D01*
X6477660Y-3189528D01*
X6478574Y-3175000D01*
X6477660Y-3160471D01*
X6474968Y-3146196D01*
X6470446Y-3132328D01*
X6464249Y-3119170D01*
X6456476Y-3106877D01*
X6447180Y-3095650D01*
X6436563Y-3085693D01*
X6424777Y-3077159D01*
X6412026Y-3070148D01*
X6398514Y-3064764D01*
X6384391Y-3061157D01*
X6369964Y-3059328D01*
X6355435Y-3059328D01*
X6341008Y-3061157D01*
X6326886Y-3064764D01*
X6313373Y-3070148D01*
X6300622Y-3077159D01*
X6288836Y-3085693D01*
X6278219Y-3095650D01*
X6268923Y-3106877D01*
X6261150Y-3119170D01*
X6254953Y-3132328D01*
X6250432Y-3146196D01*
X6247739Y-3160471D01*
X6246825Y-3175000D01*
X6247739Y-3189528D01*
X6250432Y-3203803D01*
X6254953Y-3217672D01*
X6261150Y-3230829D01*
X6268923Y-3243122D01*
X6278219Y-3254349D01*
X6288836Y-3264306D01*
X6300622Y-3272840D01*
X6313373Y-3279851D01*
X6326886Y-3285236D01*
X6341008Y-3288842D01*
G37*
G36*
X3874058Y-3278733D02*
G01*
X3884777Y-3272840D01*
X3896563Y-3264306D01*
X3907180Y-3254349D01*
X3916476Y-3243122D01*
X3924249Y-3230829D01*
X3926382Y-3226358D01*
X3874058Y-3226358D01*
G37*
G36*
X5041341Y-3278733D02*
G01*
X5041341Y-3226358D01*
X4989017Y-3226358D01*
X4991150Y-3230829D01*
X4998923Y-3243122D01*
X5008219Y-3254349D01*
X5018836Y-3264306D01*
X5030622Y-3272840D01*
G37*
G36*
X3771341Y-3278733D02*
G01*
X3771341Y-3226358D01*
X3719017Y-3226358D01*
X3721150Y-3230829D01*
X3728923Y-3243122D01*
X3738219Y-3254349D01*
X3748836Y-3264306D01*
X3760622Y-3272840D01*
G37*
G36*
X5144058Y-3278733D02*
G01*
X5154777Y-3272840D01*
X5166563Y-3264306D01*
X5177180Y-3254349D01*
X5186476Y-3243122D01*
X5194249Y-3230829D01*
X5196382Y-3226358D01*
X5144058Y-3226358D01*
G37*
G36*
X5549341Y-3278733D02*
G01*
X5549341Y-3226358D01*
X5497017Y-3226358D01*
X5499150Y-3230829D01*
X5506923Y-3243122D01*
X5516219Y-3254349D01*
X5526836Y-3264306D01*
X5538622Y-3272840D01*
G37*
G36*
X3009341Y-3278733D02*
G01*
X3009341Y-3226358D01*
X2957017Y-3226358D01*
X2959150Y-3230829D01*
X2966923Y-3243122D01*
X2976219Y-3254349D01*
X2986836Y-3264306D01*
X2998622Y-3272840D01*
G37*
G36*
X1993341Y-3278733D02*
G01*
X1993341Y-3226358D01*
X1941017Y-3226358D01*
X1943150Y-3230829D01*
X1950923Y-3243122D01*
X1960219Y-3254349D01*
X1970836Y-3264306D01*
X1982622Y-3272840D01*
G37*
G36*
X3112058Y-3278733D02*
G01*
X3122777Y-3272840D01*
X3134563Y-3264306D01*
X3145180Y-3254349D01*
X3154476Y-3243122D01*
X3162249Y-3230829D01*
X3164382Y-3226358D01*
X3112058Y-3226358D01*
G37*
G36*
X2096058Y-3278733D02*
G01*
X2106777Y-3272840D01*
X2118563Y-3264306D01*
X2129180Y-3254349D01*
X2138476Y-3243122D01*
X2146249Y-3230829D01*
X2148382Y-3226358D01*
X2096058Y-3226358D01*
G37*
G36*
X5652058Y-3278733D02*
G01*
X5662777Y-3272840D01*
X5674563Y-3264306D01*
X5685180Y-3254349D01*
X5694476Y-3243122D01*
X5702249Y-3230829D01*
X5704382Y-3226358D01*
X5652058Y-3226358D01*
G37*
G36*
X3874058Y-3123641D02*
G01*
X3926382Y-3123641D01*
X3924249Y-3119170D01*
X3916476Y-3106877D01*
X3907180Y-3095650D01*
X3896563Y-3085693D01*
X3884777Y-3077159D01*
X3874058Y-3071266D01*
G37*
G36*
X3719017Y-3123641D02*
G01*
X3771341Y-3123641D01*
X3771341Y-3071266D01*
X3760622Y-3077159D01*
X3748836Y-3085693D01*
X3738219Y-3095650D01*
X3728923Y-3106877D01*
X3721150Y-3119170D01*
G37*
G36*
X4989017Y-3123641D02*
G01*
X5041341Y-3123641D01*
X5041341Y-3071266D01*
X5030622Y-3077159D01*
X5018836Y-3085693D01*
X5008219Y-3095650D01*
X4998923Y-3106877D01*
X4991150Y-3119170D01*
G37*
G36*
X1941017Y-3123641D02*
G01*
X1993341Y-3123641D01*
X1993341Y-3071266D01*
X1982622Y-3077159D01*
X1970836Y-3085693D01*
X1960219Y-3095650D01*
X1950923Y-3106877D01*
X1943150Y-3119170D01*
G37*
G36*
X5497017Y-3123641D02*
G01*
X5549341Y-3123641D01*
X5549341Y-3071266D01*
X5538622Y-3077159D01*
X5526836Y-3085693D01*
X5516219Y-3095650D01*
X5506923Y-3106877D01*
X5499150Y-3119170D01*
G37*
G36*
X5144058Y-3123641D02*
G01*
X5196382Y-3123641D01*
X5194249Y-3119170D01*
X5186476Y-3106877D01*
X5177180Y-3095650D01*
X5166563Y-3085693D01*
X5154777Y-3077159D01*
X5144058Y-3071266D01*
G37*
G36*
X2957017Y-3123641D02*
G01*
X3009341Y-3123641D01*
X3009341Y-3071266D01*
X2998622Y-3077159D01*
X2986836Y-3085693D01*
X2976219Y-3095650D01*
X2966923Y-3106877D01*
X2959150Y-3119170D01*
G37*
G36*
X3112058Y-3123641D02*
G01*
X3164382Y-3123641D01*
X3162249Y-3119170D01*
X3154476Y-3106877D01*
X3145180Y-3095650D01*
X3134563Y-3085693D01*
X3122777Y-3077159D01*
X3112058Y-3071266D01*
G37*
G36*
X5652058Y-3123641D02*
G01*
X5704382Y-3123641D01*
X5702249Y-3119170D01*
X5694476Y-3106877D01*
X5685180Y-3095650D01*
X5674563Y-3085693D01*
X5662777Y-3077159D01*
X5652058Y-3071266D01*
G37*
G36*
X2096058Y-3123641D02*
G01*
X2148382Y-3123641D01*
X2146249Y-3119170D01*
X2138476Y-3106877D01*
X2129180Y-3095650D01*
X2118563Y-3085693D01*
X2106777Y-3077159D01*
X2096058Y-3071266D01*
G37*
G36*
X6284518Y-3036925D02*
G01*
X6316980Y-3036925D01*
X6316980Y-2972358D01*
X6258052Y-2972358D01*
X6258052Y-3010408D01*
X6258763Y-3016758D01*
X6260693Y-3022193D01*
X6263741Y-3027121D01*
X6267856Y-3031185D01*
X6272733Y-3034284D01*
X6278219Y-3036214D01*
G37*
G36*
X6408420Y-3036925D02*
G01*
X6440881Y-3036925D01*
X6447180Y-3036214D01*
X6452666Y-3034284D01*
X6457543Y-3031185D01*
X6461658Y-3027121D01*
X6464706Y-3022193D01*
X6466636Y-3016758D01*
X6467348Y-3010408D01*
X6467348Y-2972358D01*
X6408420Y-2972358D01*
G37*
G36*
X1783435Y-3036671D02*
G01*
X1797964Y-3036671D01*
X1812391Y-3034842D01*
X1826514Y-3031236D01*
X1840026Y-3025851D01*
X1852777Y-3018840D01*
X1864563Y-3010306D01*
X1875180Y-3000349D01*
X1884476Y-2989122D01*
X1892249Y-2976829D01*
X1898446Y-2963672D01*
X1902968Y-2949803D01*
X1905660Y-2935528D01*
X1906574Y-2921000D01*
X1905660Y-2906471D01*
X1902968Y-2892196D01*
X1898446Y-2878328D01*
X1892249Y-2865170D01*
X1884476Y-2852877D01*
X1875180Y-2841650D01*
X1864563Y-2831693D01*
X1852777Y-2823159D01*
X1840026Y-2816148D01*
X1826514Y-2810764D01*
X1812391Y-2807157D01*
X1797964Y-2805328D01*
X1783435Y-2805328D01*
X1769008Y-2807157D01*
X1754886Y-2810764D01*
X1741373Y-2816148D01*
X1728622Y-2823159D01*
X1716836Y-2831693D01*
X1706219Y-2841650D01*
X1696923Y-2852877D01*
X1689150Y-2865170D01*
X1682953Y-2878328D01*
X1678432Y-2892196D01*
X1675739Y-2906471D01*
X1674825Y-2921000D01*
X1675739Y-2935528D01*
X1678432Y-2949803D01*
X1682953Y-2963672D01*
X1689150Y-2976829D01*
X1696923Y-2989122D01*
X1706219Y-3000349D01*
X1716836Y-3010306D01*
X1728622Y-3018840D01*
X1741373Y-3025851D01*
X1754886Y-3031236D01*
X1769008Y-3034842D01*
G37*
G36*
X1529435Y-3036671D02*
G01*
X1543964Y-3036671D01*
X1558391Y-3034842D01*
X1572514Y-3031236D01*
X1586026Y-3025851D01*
X1598777Y-3018840D01*
X1610563Y-3010306D01*
X1621180Y-3000349D01*
X1630476Y-2989122D01*
X1638249Y-2976829D01*
X1644446Y-2963672D01*
X1648968Y-2949803D01*
X1651660Y-2935528D01*
X1652574Y-2921000D01*
X1651660Y-2906471D01*
X1648968Y-2892196D01*
X1644446Y-2878328D01*
X1638249Y-2865170D01*
X1630476Y-2852877D01*
X1621180Y-2841650D01*
X1610563Y-2831693D01*
X1598777Y-2823159D01*
X1586026Y-2816148D01*
X1572514Y-2810764D01*
X1558391Y-2807157D01*
X1543964Y-2805328D01*
X1529435Y-2805328D01*
X1515008Y-2807157D01*
X1500886Y-2810764D01*
X1487373Y-2816148D01*
X1474622Y-2823159D01*
X1462836Y-2831693D01*
X1452219Y-2841650D01*
X1442923Y-2852877D01*
X1435150Y-2865170D01*
X1428953Y-2878328D01*
X1424432Y-2892196D01*
X1421739Y-2906471D01*
X1420825Y-2921000D01*
X1421739Y-2935528D01*
X1424432Y-2949803D01*
X1428953Y-2963672D01*
X1435150Y-2976829D01*
X1442923Y-2989122D01*
X1452219Y-3000349D01*
X1462836Y-3010306D01*
X1474622Y-3018840D01*
X1487373Y-3025851D01*
X1500886Y-3031236D01*
X1515008Y-3034842D01*
G37*
G36*
X2037435Y-3036671D02*
G01*
X2051964Y-3036671D01*
X2066391Y-3034842D01*
X2080514Y-3031236D01*
X2094026Y-3025851D01*
X2106777Y-3018840D01*
X2118563Y-3010306D01*
X2129180Y-3000349D01*
X2138476Y-2989122D01*
X2146249Y-2976829D01*
X2152446Y-2963672D01*
X2156968Y-2949803D01*
X2159660Y-2935528D01*
X2160574Y-2921000D01*
X2159660Y-2906471D01*
X2156968Y-2892196D01*
X2152446Y-2878328D01*
X2146249Y-2865170D01*
X2138476Y-2852877D01*
X2129180Y-2841650D01*
X2118563Y-2831693D01*
X2106777Y-2823159D01*
X2094026Y-2816148D01*
X2080514Y-2810764D01*
X2066391Y-2807157D01*
X2051964Y-2805328D01*
X2037435Y-2805328D01*
X2023008Y-2807157D01*
X2008886Y-2810764D01*
X1995373Y-2816148D01*
X1982622Y-2823159D01*
X1970836Y-2831693D01*
X1960219Y-2841650D01*
X1950923Y-2852877D01*
X1943150Y-2865170D01*
X1936953Y-2878328D01*
X1932432Y-2892196D01*
X1929739Y-2906471D01*
X1928825Y-2921000D01*
X1929739Y-2935528D01*
X1932432Y-2949803D01*
X1936953Y-2963672D01*
X1943150Y-2976829D01*
X1950923Y-2989122D01*
X1960219Y-3000349D01*
X1970836Y-3010306D01*
X1982622Y-3018840D01*
X1995373Y-3025851D01*
X2008886Y-3031236D01*
X2023008Y-3034842D01*
G37*
G36*
X3053435Y-3036671D02*
G01*
X3067964Y-3036671D01*
X3082391Y-3034842D01*
X3096514Y-3031236D01*
X3110026Y-3025851D01*
X3122777Y-3018840D01*
X3134563Y-3010306D01*
X3145180Y-3000349D01*
X3154476Y-2989122D01*
X3162249Y-2976829D01*
X3168446Y-2963672D01*
X3172968Y-2949803D01*
X3175660Y-2935528D01*
X3176574Y-2921000D01*
X3175660Y-2906471D01*
X3172968Y-2892196D01*
X3168446Y-2878328D01*
X3162249Y-2865170D01*
X3154476Y-2852877D01*
X3145180Y-2841650D01*
X3134563Y-2831693D01*
X3122777Y-2823159D01*
X3110026Y-2816148D01*
X3096514Y-2810764D01*
X3082391Y-2807157D01*
X3067964Y-2805328D01*
X3053435Y-2805328D01*
X3039008Y-2807157D01*
X3024886Y-2810764D01*
X3011373Y-2816148D01*
X2998622Y-2823159D01*
X2986836Y-2831693D01*
X2976219Y-2841650D01*
X2966923Y-2852877D01*
X2959150Y-2865170D01*
X2952953Y-2878328D01*
X2948432Y-2892196D01*
X2945739Y-2906471D01*
X2944825Y-2921000D01*
X2945739Y-2935528D01*
X2948432Y-2949803D01*
X2952953Y-2963672D01*
X2959150Y-2976829D01*
X2966923Y-2989122D01*
X2976219Y-3000349D01*
X2986836Y-3010306D01*
X2998622Y-3018840D01*
X3011373Y-3025851D01*
X3024886Y-3031236D01*
X3039008Y-3034842D01*
G37*
G36*
X4831435Y-3036671D02*
G01*
X4845964Y-3036671D01*
X4860391Y-3034842D01*
X4874514Y-3031236D01*
X4888026Y-3025851D01*
X4900777Y-3018840D01*
X4912563Y-3010306D01*
X4923180Y-3000349D01*
X4932476Y-2989122D01*
X4940249Y-2976829D01*
X4946446Y-2963672D01*
X4950968Y-2949803D01*
X4953660Y-2935528D01*
X4954574Y-2921000D01*
X4953660Y-2906471D01*
X4950968Y-2892196D01*
X4946446Y-2878328D01*
X4940249Y-2865170D01*
X4932476Y-2852877D01*
X4923180Y-2841650D01*
X4912563Y-2831693D01*
X4900777Y-2823159D01*
X4888026Y-2816148D01*
X4874514Y-2810764D01*
X4860391Y-2807157D01*
X4845964Y-2805328D01*
X4831435Y-2805328D01*
X4817008Y-2807157D01*
X4802886Y-2810764D01*
X4789373Y-2816148D01*
X4776622Y-2823159D01*
X4764836Y-2831693D01*
X4754219Y-2841650D01*
X4744923Y-2852877D01*
X4737150Y-2865170D01*
X4730953Y-2878328D01*
X4726432Y-2892196D01*
X4723739Y-2906471D01*
X4722825Y-2921000D01*
X4723739Y-2935528D01*
X4726432Y-2949803D01*
X4730953Y-2963672D01*
X4737150Y-2976829D01*
X4744923Y-2989122D01*
X4754219Y-3000349D01*
X4764836Y-3010306D01*
X4776622Y-3018840D01*
X4789373Y-3025851D01*
X4802886Y-3031236D01*
X4817008Y-3034842D01*
G37*
G36*
X2291435Y-3036671D02*
G01*
X2305964Y-3036671D01*
X2320391Y-3034842D01*
X2334514Y-3031236D01*
X2348026Y-3025851D01*
X2360777Y-3018840D01*
X2372563Y-3010306D01*
X2383180Y-3000349D01*
X2392476Y-2989122D01*
X2400249Y-2976829D01*
X2406446Y-2963672D01*
X2410968Y-2949803D01*
X2413660Y-2935528D01*
X2414574Y-2921000D01*
X2413660Y-2906471D01*
X2410968Y-2892196D01*
X2406446Y-2878328D01*
X2400249Y-2865170D01*
X2392476Y-2852877D01*
X2383180Y-2841650D01*
X2372563Y-2831693D01*
X2360777Y-2823159D01*
X2348026Y-2816148D01*
X2334514Y-2810764D01*
X2320391Y-2807157D01*
X2305964Y-2805328D01*
X2291435Y-2805328D01*
X2277008Y-2807157D01*
X2262886Y-2810764D01*
X2249373Y-2816148D01*
X2236622Y-2823159D01*
X2224836Y-2831693D01*
X2214219Y-2841650D01*
X2204923Y-2852877D01*
X2197150Y-2865170D01*
X2190953Y-2878328D01*
X2186432Y-2892196D01*
X2183739Y-2906471D01*
X2182825Y-2921000D01*
X2183739Y-2935528D01*
X2186432Y-2949803D01*
X2190953Y-2963672D01*
X2197150Y-2976829D01*
X2204923Y-2989122D01*
X2214219Y-3000349D01*
X2224836Y-3010306D01*
X2236622Y-3018840D01*
X2249373Y-3025851D01*
X2262886Y-3031236D01*
X2277008Y-3034842D01*
G37*
G36*
X4323435Y-3036671D02*
G01*
X4337964Y-3036671D01*
X4352391Y-3034842D01*
X4366514Y-3031236D01*
X4380026Y-3025851D01*
X4392777Y-3018840D01*
X4404563Y-3010306D01*
X4415180Y-3000349D01*
X4424476Y-2989122D01*
X4432249Y-2976829D01*
X4438446Y-2963672D01*
X4442968Y-2949803D01*
X4445660Y-2935528D01*
X4446574Y-2921000D01*
X4445660Y-2906471D01*
X4442968Y-2892196D01*
X4438446Y-2878328D01*
X4432249Y-2865170D01*
X4424476Y-2852877D01*
X4415180Y-2841650D01*
X4404563Y-2831693D01*
X4392777Y-2823159D01*
X4380026Y-2816148D01*
X4366514Y-2810764D01*
X4352391Y-2807157D01*
X4337964Y-2805328D01*
X4323435Y-2805328D01*
X4309008Y-2807157D01*
X4294886Y-2810764D01*
X4281373Y-2816148D01*
X4268622Y-2823159D01*
X4256836Y-2831693D01*
X4246219Y-2841650D01*
X4236923Y-2852877D01*
X4229150Y-2865170D01*
X4222953Y-2878328D01*
X4218432Y-2892196D01*
X4215739Y-2906471D01*
X4214825Y-2921000D01*
X4215739Y-2935528D01*
X4218432Y-2949803D01*
X4222953Y-2963672D01*
X4229150Y-2976829D01*
X4236923Y-2989122D01*
X4246219Y-3000349D01*
X4256836Y-3010306D01*
X4268622Y-3018840D01*
X4281373Y-3025851D01*
X4294886Y-3031236D01*
X4309008Y-3034842D01*
G37*
G36*
X5339435Y-3036671D02*
G01*
X5353964Y-3036671D01*
X5368391Y-3034842D01*
X5382514Y-3031236D01*
X5396026Y-3025851D01*
X5408777Y-3018840D01*
X5420563Y-3010306D01*
X5431180Y-3000349D01*
X5440476Y-2989122D01*
X5448249Y-2976829D01*
X5454446Y-2963672D01*
X5458968Y-2949803D01*
X5461660Y-2935528D01*
X5462574Y-2921000D01*
X5461660Y-2906471D01*
X5458968Y-2892196D01*
X5454446Y-2878328D01*
X5448249Y-2865170D01*
X5440476Y-2852877D01*
X5431180Y-2841650D01*
X5420563Y-2831693D01*
X5408777Y-2823159D01*
X5396026Y-2816148D01*
X5382514Y-2810764D01*
X5368391Y-2807157D01*
X5353964Y-2805328D01*
X5339435Y-2805328D01*
X5325008Y-2807157D01*
X5310886Y-2810764D01*
X5297373Y-2816148D01*
X5284622Y-2823159D01*
X5272836Y-2831693D01*
X5262219Y-2841650D01*
X5252923Y-2852877D01*
X5245150Y-2865170D01*
X5238953Y-2878328D01*
X5234432Y-2892196D01*
X5231739Y-2906471D01*
X5230825Y-2921000D01*
X5231739Y-2935528D01*
X5234432Y-2949803D01*
X5238953Y-2963672D01*
X5245150Y-2976829D01*
X5252923Y-2989122D01*
X5262219Y-3000349D01*
X5272836Y-3010306D01*
X5284622Y-3018840D01*
X5297373Y-3025851D01*
X5310886Y-3031236D01*
X5325008Y-3034842D01*
G37*
G36*
X3307435Y-3036671D02*
G01*
X3321964Y-3036671D01*
X3336391Y-3034842D01*
X3350514Y-3031236D01*
X3364026Y-3025851D01*
X3376777Y-3018840D01*
X3388563Y-3010306D01*
X3399180Y-3000349D01*
X3408476Y-2989122D01*
X3416249Y-2976829D01*
X3422446Y-2963672D01*
X3426968Y-2949803D01*
X3429660Y-2935528D01*
X3430574Y-2921000D01*
X3429660Y-2906471D01*
X3426968Y-2892196D01*
X3422446Y-2878328D01*
X3416249Y-2865170D01*
X3408476Y-2852877D01*
X3399180Y-2841650D01*
X3388563Y-2831693D01*
X3376777Y-2823159D01*
X3364026Y-2816148D01*
X3350514Y-2810764D01*
X3336391Y-2807157D01*
X3321964Y-2805328D01*
X3307435Y-2805328D01*
X3293008Y-2807157D01*
X3278886Y-2810764D01*
X3265373Y-2816148D01*
X3252622Y-2823159D01*
X3240836Y-2831693D01*
X3230219Y-2841650D01*
X3220923Y-2852877D01*
X3213150Y-2865170D01*
X3206953Y-2878328D01*
X3202432Y-2892196D01*
X3199739Y-2906471D01*
X3198825Y-2921000D01*
X3199739Y-2935528D01*
X3202432Y-2949803D01*
X3206953Y-2963672D01*
X3213150Y-2976829D01*
X3220923Y-2989122D01*
X3230219Y-3000349D01*
X3240836Y-3010306D01*
X3252622Y-3018840D01*
X3265373Y-3025851D01*
X3278886Y-3031236D01*
X3293008Y-3034842D01*
G37*
G36*
X5593435Y-3036671D02*
G01*
X5607964Y-3036671D01*
X5622391Y-3034842D01*
X5636514Y-3031236D01*
X5650026Y-3025851D01*
X5662777Y-3018840D01*
X5674563Y-3010306D01*
X5685180Y-3000349D01*
X5694476Y-2989122D01*
X5702249Y-2976829D01*
X5708446Y-2963672D01*
X5712968Y-2949803D01*
X5715660Y-2935528D01*
X5716574Y-2921000D01*
X5715660Y-2906471D01*
X5712968Y-2892196D01*
X5708446Y-2878328D01*
X5702249Y-2865170D01*
X5694476Y-2852877D01*
X5685180Y-2841650D01*
X5674563Y-2831693D01*
X5662777Y-2823159D01*
X5650026Y-2816148D01*
X5636514Y-2810764D01*
X5622391Y-2807157D01*
X5607964Y-2805328D01*
X5593435Y-2805328D01*
X5579008Y-2807157D01*
X5564886Y-2810764D01*
X5551373Y-2816148D01*
X5538622Y-2823159D01*
X5526836Y-2831693D01*
X5516219Y-2841650D01*
X5506923Y-2852877D01*
X5499150Y-2865170D01*
X5492953Y-2878328D01*
X5488432Y-2892196D01*
X5485739Y-2906471D01*
X5484825Y-2921000D01*
X5485739Y-2935528D01*
X5488432Y-2949803D01*
X5492953Y-2963672D01*
X5499150Y-2976829D01*
X5506923Y-2989122D01*
X5516219Y-3000349D01*
X5526836Y-3010306D01*
X5538622Y-3018840D01*
X5551373Y-3025851D01*
X5564886Y-3031236D01*
X5579008Y-3034842D01*
G37*
G36*
X4069435Y-3036671D02*
G01*
X4083964Y-3036671D01*
X4098391Y-3034842D01*
X4112514Y-3031236D01*
X4126026Y-3025851D01*
X4138777Y-3018840D01*
X4150563Y-3010306D01*
X4161180Y-3000349D01*
X4170476Y-2989122D01*
X4178249Y-2976829D01*
X4184446Y-2963672D01*
X4188968Y-2949803D01*
X4191660Y-2935528D01*
X4192574Y-2921000D01*
X4191660Y-2906471D01*
X4188968Y-2892196D01*
X4184446Y-2878328D01*
X4178249Y-2865170D01*
X4170476Y-2852877D01*
X4161180Y-2841650D01*
X4150563Y-2831693D01*
X4138777Y-2823159D01*
X4126026Y-2816148D01*
X4112514Y-2810764D01*
X4098391Y-2807157D01*
X4083964Y-2805328D01*
X4069435Y-2805328D01*
X4055008Y-2807157D01*
X4040886Y-2810764D01*
X4027373Y-2816148D01*
X4014622Y-2823159D01*
X4002836Y-2831693D01*
X3992219Y-2841650D01*
X3982923Y-2852877D01*
X3975150Y-2865170D01*
X3968953Y-2878328D01*
X3964432Y-2892196D01*
X3961739Y-2906471D01*
X3960825Y-2921000D01*
X3961739Y-2935528D01*
X3964432Y-2949803D01*
X3968953Y-2963672D01*
X3975150Y-2976829D01*
X3982923Y-2989122D01*
X3992219Y-3000349D01*
X4002836Y-3010306D01*
X4014622Y-3018840D01*
X4027373Y-3025851D01*
X4040886Y-3031236D01*
X4055008Y-3034842D01*
G37*
G36*
X3561435Y-3036671D02*
G01*
X3575964Y-3036671D01*
X3590391Y-3034842D01*
X3604514Y-3031236D01*
X3618026Y-3025851D01*
X3630777Y-3018840D01*
X3642563Y-3010306D01*
X3653180Y-3000349D01*
X3662476Y-2989122D01*
X3670249Y-2976829D01*
X3676446Y-2963672D01*
X3680968Y-2949803D01*
X3683660Y-2935528D01*
X3684574Y-2921000D01*
X3683660Y-2906471D01*
X3680968Y-2892196D01*
X3676446Y-2878328D01*
X3670249Y-2865170D01*
X3662476Y-2852877D01*
X3653180Y-2841650D01*
X3642563Y-2831693D01*
X3630777Y-2823159D01*
X3618026Y-2816148D01*
X3604514Y-2810764D01*
X3590391Y-2807157D01*
X3575964Y-2805328D01*
X3561435Y-2805328D01*
X3547008Y-2807157D01*
X3532886Y-2810764D01*
X3519373Y-2816148D01*
X3506622Y-2823159D01*
X3494836Y-2831693D01*
X3484219Y-2841650D01*
X3474923Y-2852877D01*
X3467150Y-2865170D01*
X3460953Y-2878328D01*
X3456432Y-2892196D01*
X3453739Y-2906471D01*
X3452825Y-2921000D01*
X3453739Y-2935528D01*
X3456432Y-2949803D01*
X3460953Y-2963672D01*
X3467150Y-2976829D01*
X3474923Y-2989122D01*
X3484219Y-3000349D01*
X3494836Y-3010306D01*
X3506622Y-3018840D01*
X3519373Y-3025851D01*
X3532886Y-3031236D01*
X3547008Y-3034842D01*
G37*
G36*
X3815435Y-3036671D02*
G01*
X3829964Y-3036671D01*
X3844391Y-3034842D01*
X3858514Y-3031236D01*
X3872026Y-3025851D01*
X3884777Y-3018840D01*
X3896563Y-3010306D01*
X3907180Y-3000349D01*
X3916476Y-2989122D01*
X3924249Y-2976829D01*
X3930446Y-2963672D01*
X3934968Y-2949803D01*
X3937660Y-2935528D01*
X3938574Y-2921000D01*
X3937660Y-2906471D01*
X3934968Y-2892196D01*
X3930446Y-2878328D01*
X3924249Y-2865170D01*
X3916476Y-2852877D01*
X3907180Y-2841650D01*
X3896563Y-2831693D01*
X3884777Y-2823159D01*
X3872026Y-2816148D01*
X3858514Y-2810764D01*
X3844391Y-2807157D01*
X3829964Y-2805328D01*
X3815435Y-2805328D01*
X3801008Y-2807157D01*
X3786886Y-2810764D01*
X3773373Y-2816148D01*
X3760622Y-2823159D01*
X3748836Y-2831693D01*
X3738219Y-2841650D01*
X3728923Y-2852877D01*
X3721150Y-2865170D01*
X3714953Y-2878328D01*
X3710432Y-2892196D01*
X3707739Y-2906471D01*
X3706825Y-2921000D01*
X3707739Y-2935528D01*
X3710432Y-2949803D01*
X3714953Y-2963672D01*
X3721150Y-2976829D01*
X3728923Y-2989122D01*
X3738219Y-3000349D01*
X3748836Y-3010306D01*
X3760622Y-3018840D01*
X3773373Y-3025851D01*
X3786886Y-3031236D01*
X3801008Y-3034842D01*
G37*
G36*
X2799435Y-3036671D02*
G01*
X2813964Y-3036671D01*
X2828391Y-3034842D01*
X2842514Y-3031236D01*
X2856026Y-3025851D01*
X2868777Y-3018840D01*
X2880563Y-3010306D01*
X2891180Y-3000349D01*
X2900476Y-2989122D01*
X2908249Y-2976829D01*
X2914446Y-2963672D01*
X2918968Y-2949803D01*
X2921660Y-2935528D01*
X2922574Y-2921000D01*
X2921660Y-2906471D01*
X2918968Y-2892196D01*
X2914446Y-2878328D01*
X2908249Y-2865170D01*
X2900476Y-2852877D01*
X2891180Y-2841650D01*
X2880563Y-2831693D01*
X2868777Y-2823159D01*
X2856026Y-2816148D01*
X2842514Y-2810764D01*
X2828391Y-2807157D01*
X2813964Y-2805328D01*
X2799435Y-2805328D01*
X2785008Y-2807157D01*
X2770886Y-2810764D01*
X2757373Y-2816148D01*
X2744622Y-2823159D01*
X2732836Y-2831693D01*
X2722219Y-2841650D01*
X2712923Y-2852877D01*
X2705150Y-2865170D01*
X2698953Y-2878328D01*
X2694432Y-2892196D01*
X2691739Y-2906471D01*
X2690825Y-2921000D01*
X2691739Y-2935528D01*
X2694432Y-2949803D01*
X2698953Y-2963672D01*
X2705150Y-2976829D01*
X2712923Y-2989122D01*
X2722219Y-3000349D01*
X2732836Y-3010306D01*
X2744622Y-3018840D01*
X2757373Y-3025851D01*
X2770886Y-3031236D01*
X2785008Y-3034842D01*
G37*
G36*
X5847435Y-3036671D02*
G01*
X5861964Y-3036671D01*
X5876391Y-3034842D01*
X5890514Y-3031236D01*
X5904026Y-3025851D01*
X5916777Y-3018840D01*
X5928563Y-3010306D01*
X5939180Y-3000349D01*
X5948476Y-2989122D01*
X5956249Y-2976829D01*
X5962446Y-2963672D01*
X5966968Y-2949803D01*
X5969660Y-2935528D01*
X5970574Y-2921000D01*
X5969660Y-2906471D01*
X5966968Y-2892196D01*
X5962446Y-2878328D01*
X5956249Y-2865170D01*
X5948476Y-2852877D01*
X5939180Y-2841650D01*
X5928563Y-2831693D01*
X5916777Y-2823159D01*
X5904026Y-2816148D01*
X5890514Y-2810764D01*
X5876391Y-2807157D01*
X5861964Y-2805328D01*
X5847435Y-2805328D01*
X5833008Y-2807157D01*
X5818886Y-2810764D01*
X5805373Y-2816148D01*
X5792622Y-2823159D01*
X5780836Y-2831693D01*
X5770219Y-2841650D01*
X5760923Y-2852877D01*
X5753150Y-2865170D01*
X5746953Y-2878328D01*
X5742432Y-2892196D01*
X5739739Y-2906471D01*
X5738825Y-2921000D01*
X5739739Y-2935528D01*
X5742432Y-2949803D01*
X5746953Y-2963672D01*
X5753150Y-2976829D01*
X5760923Y-2989122D01*
X5770219Y-3000349D01*
X5780836Y-3010306D01*
X5792622Y-3018840D01*
X5805373Y-3025851D01*
X5818886Y-3031236D01*
X5833008Y-3034842D01*
G37*
G36*
X5085435Y-3036671D02*
G01*
X5099964Y-3036671D01*
X5114391Y-3034842D01*
X5128514Y-3031236D01*
X5142026Y-3025851D01*
X5154777Y-3018840D01*
X5166563Y-3010306D01*
X5177180Y-3000349D01*
X5186476Y-2989122D01*
X5194249Y-2976829D01*
X5200446Y-2963672D01*
X5204968Y-2949803D01*
X5207660Y-2935528D01*
X5208574Y-2921000D01*
X5207660Y-2906471D01*
X5204968Y-2892196D01*
X5200446Y-2878328D01*
X5194249Y-2865170D01*
X5186476Y-2852877D01*
X5177180Y-2841650D01*
X5166563Y-2831693D01*
X5154777Y-2823159D01*
X5142026Y-2816148D01*
X5128514Y-2810764D01*
X5114391Y-2807157D01*
X5099964Y-2805328D01*
X5085435Y-2805328D01*
X5071008Y-2807157D01*
X5056886Y-2810764D01*
X5043373Y-2816148D01*
X5030622Y-2823159D01*
X5018836Y-2831693D01*
X5008219Y-2841650D01*
X4998923Y-2852877D01*
X4991150Y-2865170D01*
X4984953Y-2878328D01*
X4980432Y-2892196D01*
X4977739Y-2906471D01*
X4976825Y-2921000D01*
X4977739Y-2935528D01*
X4980432Y-2949803D01*
X4984953Y-2963672D01*
X4991150Y-2976829D01*
X4998923Y-2989122D01*
X5008219Y-3000349D01*
X5018836Y-3010306D01*
X5030622Y-3018840D01*
X5043373Y-3025851D01*
X5056886Y-3031236D01*
X5071008Y-3034842D01*
G37*
G36*
X6101435Y-3036671D02*
G01*
X6115964Y-3036671D01*
X6130391Y-3034842D01*
X6144514Y-3031236D01*
X6158026Y-3025851D01*
X6170777Y-3018840D01*
X6182563Y-3010306D01*
X6193180Y-3000349D01*
X6202476Y-2989122D01*
X6210249Y-2976829D01*
X6216446Y-2963672D01*
X6220968Y-2949803D01*
X6223660Y-2935528D01*
X6224574Y-2921000D01*
X6223660Y-2906471D01*
X6220968Y-2892196D01*
X6216446Y-2878328D01*
X6210249Y-2865170D01*
X6202476Y-2852877D01*
X6193180Y-2841650D01*
X6182563Y-2831693D01*
X6170777Y-2823159D01*
X6158026Y-2816148D01*
X6144514Y-2810764D01*
X6130391Y-2807157D01*
X6115964Y-2805328D01*
X6101435Y-2805328D01*
X6087008Y-2807157D01*
X6072886Y-2810764D01*
X6059373Y-2816148D01*
X6046622Y-2823159D01*
X6034836Y-2831693D01*
X6024219Y-2841650D01*
X6014923Y-2852877D01*
X6007150Y-2865170D01*
X6000953Y-2878328D01*
X5996432Y-2892196D01*
X5993739Y-2906471D01*
X5992825Y-2921000D01*
X5993739Y-2935528D01*
X5996432Y-2949803D01*
X6000953Y-2963672D01*
X6007150Y-2976829D01*
X6014923Y-2989122D01*
X6024219Y-3000349D01*
X6034836Y-3010306D01*
X6046622Y-3018840D01*
X6059373Y-3025851D01*
X6072886Y-3031236D01*
X6087008Y-3034842D01*
G37*
G36*
X2501341Y-3024733D02*
G01*
X2501341Y-2972358D01*
X2449017Y-2972358D01*
X2451150Y-2976829D01*
X2458923Y-2989122D01*
X2468219Y-3000349D01*
X2478836Y-3010306D01*
X2490622Y-3018840D01*
G37*
G36*
X4533341Y-3024733D02*
G01*
X4533341Y-2972358D01*
X4481017Y-2972358D01*
X4483150Y-2976829D01*
X4490923Y-2989122D01*
X4500219Y-3000349D01*
X4510836Y-3010306D01*
X4522622Y-3018840D01*
G37*
G36*
X4636058Y-3024733D02*
G01*
X4646777Y-3018840D01*
X4658563Y-3010306D01*
X4669180Y-3000349D01*
X4678476Y-2989122D01*
X4686249Y-2976829D01*
X4688382Y-2972358D01*
X4636058Y-2972358D01*
G37*
G36*
X2604058Y-3024733D02*
G01*
X2614777Y-3018840D01*
X2626563Y-3010306D01*
X2637180Y-3000349D01*
X2646476Y-2989122D01*
X2654249Y-2976829D01*
X2656382Y-2972358D01*
X2604058Y-2972358D01*
G37*
G36*
X2449017Y-2869641D02*
G01*
X2501341Y-2869641D01*
X2501341Y-2817266D01*
X2490622Y-2823159D01*
X2478836Y-2831693D01*
X2468219Y-2841650D01*
X2458923Y-2852877D01*
X2451150Y-2865170D01*
G37*
G36*
X4481017Y-2869641D02*
G01*
X4533341Y-2869641D01*
X4533341Y-2817266D01*
X4522622Y-2823159D01*
X4510836Y-2831693D01*
X4500219Y-2841650D01*
X4490923Y-2852877D01*
X4483150Y-2865170D01*
G37*
G36*
X4636058Y-2869641D02*
G01*
X4688382Y-2869641D01*
X4686249Y-2865170D01*
X4678476Y-2852877D01*
X4669180Y-2841650D01*
X4658563Y-2831693D01*
X4646777Y-2823159D01*
X4636058Y-2817266D01*
G37*
G36*
X2604058Y-2869641D02*
G01*
X2656382Y-2869641D01*
X2654249Y-2865170D01*
X2646476Y-2852877D01*
X2637180Y-2841650D01*
X2626563Y-2831693D01*
X2614777Y-2823159D01*
X2604058Y-2817266D01*
G37*
G36*
X6258052Y-2869641D02*
G01*
X6316980Y-2869641D01*
X6316980Y-2805074D01*
X6284518Y-2805074D01*
X6278219Y-2805785D01*
X6272733Y-2807716D01*
X6267856Y-2810814D01*
X6263741Y-2814878D01*
X6260693Y-2819806D01*
X6258763Y-2825242D01*
X6258052Y-2831592D01*
G37*
G36*
X6408420Y-2869641D02*
G01*
X6467348Y-2869641D01*
X6467348Y-2831592D01*
X6466636Y-2825242D01*
X6464706Y-2819806D01*
X6461658Y-2814878D01*
X6457543Y-2810814D01*
X6452666Y-2807716D01*
X6447180Y-2805785D01*
X6440881Y-2805074D01*
X6408420Y-2805074D01*
G37*
G36*
X3079292Y3111246D02*
G01*
X3092907Y3111246D01*
X3106420Y3113074D01*
X3119577Y3116681D01*
X3132124Y3121964D01*
X3143859Y3128924D01*
X3154578Y3137408D01*
X3164078Y3147212D01*
X3172155Y3158185D01*
X3178708Y3170123D01*
X3183585Y3182874D01*
X3186785Y3196132D01*
X3188106Y3209696D01*
X3187649Y3223310D01*
X3185414Y3236772D01*
X3181350Y3249777D01*
X3175609Y3262172D01*
X3168294Y3273653D01*
X3159506Y3284067D01*
X3149346Y3293211D01*
X3138119Y3300933D01*
X3125978Y3307079D01*
X3113074Y3311550D01*
X3099714Y3314293D01*
X3086100Y3315208D01*
X3072485Y3314293D01*
X3059125Y3311550D01*
X3046222Y3307079D01*
X3034080Y3300933D01*
X3022854Y3293211D01*
X3012694Y3284067D01*
X3003905Y3273653D01*
X2996590Y3262172D01*
X2990850Y3249777D01*
X2986786Y3236772D01*
X2984550Y3223310D01*
X2984093Y3209696D01*
X2985414Y3196132D01*
X2988614Y3182874D01*
X2993491Y3170123D01*
X3000044Y3158185D01*
X3008122Y3147212D01*
X3017621Y3137408D01*
X3028340Y3128924D01*
X3040075Y3121964D01*
X3052622Y3116681D01*
X3065780Y3113074D01*
G37*
G36*
X3587292Y3111246D02*
G01*
X3600907Y3111246D01*
X3614420Y3113074D01*
X3627577Y3116681D01*
X3640124Y3121964D01*
X3651859Y3128924D01*
X3662578Y3137408D01*
X3672078Y3147212D01*
X3680155Y3158185D01*
X3686708Y3170123D01*
X3691585Y3182874D01*
X3694785Y3196132D01*
X3696106Y3209696D01*
X3695649Y3223310D01*
X3693414Y3236772D01*
X3689350Y3249777D01*
X3683609Y3262172D01*
X3676294Y3273653D01*
X3667506Y3284067D01*
X3657346Y3293211D01*
X3646119Y3300933D01*
X3633978Y3307079D01*
X3621074Y3311550D01*
X3607714Y3314293D01*
X3594100Y3315208D01*
X3580485Y3314293D01*
X3567125Y3311550D01*
X3554222Y3307079D01*
X3542080Y3300933D01*
X3530854Y3293211D01*
X3520694Y3284067D01*
X3511905Y3273653D01*
X3504590Y3262172D01*
X3498850Y3249777D01*
X3494786Y3236772D01*
X3492550Y3223310D01*
X3492093Y3209696D01*
X3493414Y3196132D01*
X3496614Y3182874D01*
X3501491Y3170123D01*
X3508044Y3158185D01*
X3516122Y3147212D01*
X3525621Y3137408D01*
X3536340Y3128924D01*
X3548075Y3121964D01*
X3560622Y3116681D01*
X3573779Y3113074D01*
G37*
G36*
X3841292Y3111246D02*
G01*
X3854907Y3111246D01*
X3868420Y3113074D01*
X3881577Y3116681D01*
X3894124Y3121964D01*
X3905859Y3128924D01*
X3916578Y3137408D01*
X3926078Y3147212D01*
X3934155Y3158185D01*
X3940708Y3170123D01*
X3945585Y3182874D01*
X3948785Y3196132D01*
X3950106Y3209696D01*
X3949649Y3223310D01*
X3947414Y3236772D01*
X3943350Y3249777D01*
X3937609Y3262172D01*
X3930294Y3273653D01*
X3921506Y3284067D01*
X3911346Y3293211D01*
X3900119Y3300933D01*
X3887978Y3307079D01*
X3875074Y3311550D01*
X3861714Y3314293D01*
X3848100Y3315208D01*
X3834485Y3314293D01*
X3821125Y3311550D01*
X3808222Y3307079D01*
X3796080Y3300933D01*
X3784854Y3293211D01*
X3774694Y3284067D01*
X3765905Y3273653D01*
X3758590Y3262172D01*
X3752850Y3249777D01*
X3748786Y3236772D01*
X3746550Y3223310D01*
X3746093Y3209696D01*
X3747414Y3196132D01*
X3750614Y3182874D01*
X3755491Y3170123D01*
X3762044Y3158185D01*
X3770122Y3147212D01*
X3779621Y3137408D01*
X3790340Y3128924D01*
X3802075Y3121964D01*
X3814622Y3116681D01*
X3827779Y3113074D01*
G37*
G36*
X3295650Y3121304D02*
G01*
X3295650Y3168650D01*
X3248304Y3168650D01*
X3254044Y3158185D01*
X3262122Y3147212D01*
X3271621Y3137408D01*
X3282340Y3128924D01*
X3294075Y3121964D01*
G37*
G36*
X3384550Y3121304D02*
G01*
X3386124Y3121964D01*
X3397859Y3128924D01*
X3408578Y3137408D01*
X3418078Y3147212D01*
X3426155Y3158185D01*
X3431895Y3168650D01*
X3384550Y3168650D01*
G37*
G36*
X3248456Y3257550D02*
G01*
X3295650Y3257550D01*
X3295650Y3304743D01*
X3288080Y3300933D01*
X3276854Y3293211D01*
X3266694Y3284067D01*
X3257905Y3273653D01*
X3250590Y3262172D01*
G37*
G36*
X3384550Y3257550D02*
G01*
X3431743Y3257550D01*
X3429609Y3262172D01*
X3422294Y3273653D01*
X3413506Y3284067D01*
X3403346Y3293211D01*
X3392119Y3300933D01*
X3384550Y3304743D01*
G37*
G36*
X7499350Y3946804D02*
G01*
X7499350Y3994150D01*
X7452004Y3994150D01*
X7457744Y3983685D01*
X7465822Y3972712D01*
X7475321Y3962908D01*
X7486040Y3954424D01*
X7497775Y3947464D01*
G37*
G36*
X7588250Y3946804D02*
G01*
X7589824Y3947464D01*
X7601559Y3954424D01*
X7612278Y3962908D01*
X7621778Y3972712D01*
X7629855Y3983685D01*
X7635595Y3994150D01*
X7588250Y3994150D01*
G37*
G36*
X4375150Y4063492D02*
G01*
X4388764Y4064406D01*
X4402124Y4067149D01*
X4415028Y4071620D01*
X4427169Y4077766D01*
X4438396Y4085488D01*
X4448556Y4094632D01*
X4457344Y4105046D01*
X4464659Y4116527D01*
X4470400Y4128922D01*
X4474464Y4141927D01*
X4476699Y4155389D01*
X4477156Y4169003D01*
X4475835Y4182567D01*
X4472635Y4195826D01*
X4467758Y4208576D01*
X4461205Y4220514D01*
X4453128Y4231487D01*
X4443628Y4241292D01*
X4432909Y4249775D01*
X4421174Y4256735D01*
X4408627Y4262018D01*
X4395470Y4265625D01*
X4381957Y4267454D01*
X4368342Y4267454D01*
X4354830Y4265625D01*
X4341672Y4262018D01*
X4329125Y4256735D01*
X4317390Y4249775D01*
X4306671Y4241292D01*
X4297172Y4231487D01*
X4289094Y4220514D01*
X4282541Y4208576D01*
X4277664Y4195826D01*
X4274464Y4182567D01*
X4273143Y4169003D01*
X4273600Y4155389D01*
X4275836Y4141927D01*
X4279900Y4128922D01*
X4285640Y4116527D01*
X4292955Y4105046D01*
X4301744Y4094632D01*
X4311904Y4085488D01*
X4323130Y4077766D01*
X4335272Y4071620D01*
X4348175Y4067149D01*
X4361535Y4064406D01*
G37*
G36*
X6648450Y4063492D02*
G01*
X6662064Y4064406D01*
X6675424Y4067149D01*
X6688328Y4071620D01*
X6700469Y4077766D01*
X6711696Y4085488D01*
X6721856Y4094632D01*
X6730644Y4105046D01*
X6737959Y4116527D01*
X6743700Y4128922D01*
X6747764Y4141927D01*
X6749999Y4155389D01*
X6750456Y4169003D01*
X6749135Y4182567D01*
X6745935Y4195826D01*
X6741058Y4208576D01*
X6734505Y4220514D01*
X6726428Y4231487D01*
X6716928Y4241292D01*
X6706209Y4249775D01*
X6694474Y4256735D01*
X6681927Y4262018D01*
X6668770Y4265625D01*
X6655257Y4267454D01*
X6641642Y4267454D01*
X6628130Y4265625D01*
X6614972Y4262018D01*
X6602425Y4256735D01*
X6590690Y4249775D01*
X6579971Y4241292D01*
X6570472Y4231487D01*
X6562394Y4220514D01*
X6555841Y4208576D01*
X6550964Y4195826D01*
X6547764Y4182567D01*
X6546443Y4169003D01*
X6546900Y4155389D01*
X6549135Y4141927D01*
X6553200Y4128922D01*
X6558940Y4116527D01*
X6566255Y4105046D01*
X6575044Y4094632D01*
X6585203Y4085488D01*
X6596430Y4077766D01*
X6608572Y4071620D01*
X6621475Y4067149D01*
X6634835Y4064406D01*
G37*
G36*
X4629150Y4063492D02*
G01*
X4642764Y4064406D01*
X4656124Y4067149D01*
X4669028Y4071620D01*
X4681169Y4077766D01*
X4692396Y4085488D01*
X4702556Y4094632D01*
X4711344Y4105046D01*
X4718659Y4116527D01*
X4724400Y4128922D01*
X4728464Y4141927D01*
X4730699Y4155389D01*
X4731156Y4169003D01*
X4729835Y4182567D01*
X4726635Y4195826D01*
X4721758Y4208576D01*
X4715205Y4220514D01*
X4707128Y4231487D01*
X4697628Y4241292D01*
X4686909Y4249775D01*
X4675174Y4256735D01*
X4662627Y4262018D01*
X4649470Y4265625D01*
X4635957Y4267454D01*
X4622342Y4267454D01*
X4608830Y4265625D01*
X4595672Y4262018D01*
X4583125Y4256735D01*
X4571390Y4249775D01*
X4560671Y4241292D01*
X4551172Y4231487D01*
X4543094Y4220514D01*
X4536541Y4208576D01*
X4531664Y4195826D01*
X4528464Y4182567D01*
X4527143Y4169003D01*
X4527600Y4155389D01*
X4529836Y4141927D01*
X4533900Y4128922D01*
X4539640Y4116527D01*
X4546955Y4105046D01*
X4555744Y4094632D01*
X4565904Y4085488D01*
X4577130Y4077766D01*
X4589272Y4071620D01*
X4602175Y4067149D01*
X4615535Y4064406D01*
G37*
G36*
X5137150Y4063492D02*
G01*
X5150764Y4064406D01*
X5164124Y4067149D01*
X5177028Y4071620D01*
X5189169Y4077766D01*
X5200396Y4085488D01*
X5210556Y4094632D01*
X5219344Y4105046D01*
X5226659Y4116527D01*
X5232400Y4128922D01*
X5236464Y4141927D01*
X5238699Y4155389D01*
X5239156Y4169003D01*
X5237835Y4182567D01*
X5234635Y4195826D01*
X5229758Y4208576D01*
X5223205Y4220514D01*
X5215128Y4231487D01*
X5205628Y4241292D01*
X5194909Y4249775D01*
X5183174Y4256735D01*
X5170627Y4262018D01*
X5157470Y4265625D01*
X5143957Y4267454D01*
X5130342Y4267454D01*
X5116830Y4265625D01*
X5103672Y4262018D01*
X5091125Y4256735D01*
X5079390Y4249775D01*
X5068671Y4241292D01*
X5059172Y4231487D01*
X5051094Y4220514D01*
X5044541Y4208576D01*
X5039664Y4195826D01*
X5036464Y4182567D01*
X5035143Y4169003D01*
X5035600Y4155389D01*
X5037836Y4141927D01*
X5041900Y4128922D01*
X5047640Y4116527D01*
X5054955Y4105046D01*
X5063744Y4094632D01*
X5073904Y4085488D01*
X5085130Y4077766D01*
X5097272Y4071620D01*
X5110175Y4067149D01*
X5123535Y4064406D01*
G37*
G36*
X4883150Y4063492D02*
G01*
X4896764Y4064406D01*
X4910124Y4067149D01*
X4923028Y4071620D01*
X4935169Y4077766D01*
X4946396Y4085488D01*
X4956556Y4094632D01*
X4965344Y4105046D01*
X4972659Y4116527D01*
X4978400Y4128922D01*
X4982464Y4141927D01*
X4984699Y4155389D01*
X4985156Y4169003D01*
X4983835Y4182567D01*
X4980635Y4195826D01*
X4975758Y4208576D01*
X4969205Y4220514D01*
X4961128Y4231487D01*
X4951628Y4241292D01*
X4940909Y4249775D01*
X4929174Y4256735D01*
X4916627Y4262018D01*
X4903470Y4265625D01*
X4889957Y4267454D01*
X4876342Y4267454D01*
X4862830Y4265625D01*
X4849672Y4262018D01*
X4837125Y4256735D01*
X4825390Y4249775D01*
X4814671Y4241292D01*
X4805172Y4231487D01*
X4797094Y4220514D01*
X4790541Y4208576D01*
X4785664Y4195826D01*
X4782464Y4182567D01*
X4781143Y4169003D01*
X4781600Y4155389D01*
X4783836Y4141927D01*
X4787900Y4128922D01*
X4793640Y4116527D01*
X4800955Y4105046D01*
X4809744Y4094632D01*
X4819904Y4085488D01*
X4831130Y4077766D01*
X4843272Y4071620D01*
X4856175Y4067149D01*
X4869535Y4064406D01*
G37*
G36*
X6153150Y4063492D02*
G01*
X6166764Y4064406D01*
X6180124Y4067149D01*
X6193028Y4071620D01*
X6205169Y4077766D01*
X6216396Y4085488D01*
X6226556Y4094632D01*
X6235344Y4105046D01*
X6242659Y4116527D01*
X6248400Y4128922D01*
X6252464Y4141927D01*
X6254699Y4155389D01*
X6255156Y4169003D01*
X6253835Y4182567D01*
X6250635Y4195826D01*
X6245758Y4208576D01*
X6239205Y4220514D01*
X6231128Y4231487D01*
X6221628Y4241292D01*
X6210909Y4249775D01*
X6199174Y4256735D01*
X6186627Y4262018D01*
X6173470Y4265625D01*
X6159957Y4267454D01*
X6146342Y4267454D01*
X6132830Y4265625D01*
X6119672Y4262018D01*
X6107125Y4256735D01*
X6095390Y4249775D01*
X6084671Y4241292D01*
X6075172Y4231487D01*
X6067094Y4220514D01*
X6060541Y4208576D01*
X6055664Y4195826D01*
X6052464Y4182567D01*
X6051143Y4169003D01*
X6051600Y4155389D01*
X6053836Y4141927D01*
X6057900Y4128922D01*
X6063640Y4116527D01*
X6070955Y4105046D01*
X6079744Y4094632D01*
X6089904Y4085488D01*
X6101130Y4077766D01*
X6113272Y4071620D01*
X6126175Y4067149D01*
X6139535Y4064406D01*
G37*
G36*
X5632450Y4063492D02*
G01*
X5646064Y4064406D01*
X5659424Y4067149D01*
X5672328Y4071620D01*
X5684469Y4077766D01*
X5695696Y4085488D01*
X5705856Y4094632D01*
X5714644Y4105046D01*
X5721959Y4116527D01*
X5727700Y4128922D01*
X5731764Y4141927D01*
X5733999Y4155389D01*
X5734456Y4169003D01*
X5733135Y4182567D01*
X5729935Y4195826D01*
X5725058Y4208576D01*
X5718505Y4220514D01*
X5710428Y4231487D01*
X5700928Y4241292D01*
X5690209Y4249775D01*
X5678474Y4256735D01*
X5665927Y4262018D01*
X5652770Y4265625D01*
X5639257Y4267454D01*
X5625642Y4267454D01*
X5612130Y4265625D01*
X5598972Y4262018D01*
X5586425Y4256735D01*
X5574690Y4249775D01*
X5563971Y4241292D01*
X5554472Y4231487D01*
X5546394Y4220514D01*
X5539841Y4208576D01*
X5534964Y4195826D01*
X5531764Y4182567D01*
X5530443Y4169003D01*
X5530900Y4155389D01*
X5533136Y4141927D01*
X5537200Y4128922D01*
X5542940Y4116527D01*
X5550255Y4105046D01*
X5559044Y4094632D01*
X5569204Y4085488D01*
X5580430Y4077766D01*
X5592572Y4071620D01*
X5605475Y4067149D01*
X5618835Y4064406D01*
G37*
G36*
X5378450Y4063492D02*
G01*
X5392064Y4064406D01*
X5405424Y4067149D01*
X5418328Y4071620D01*
X5430469Y4077766D01*
X5441696Y4085488D01*
X5451856Y4094632D01*
X5460644Y4105046D01*
X5467959Y4116527D01*
X5473700Y4128922D01*
X5477764Y4141927D01*
X5479999Y4155389D01*
X5480456Y4169003D01*
X5479135Y4182567D01*
X5475935Y4195826D01*
X5471058Y4208576D01*
X5464505Y4220514D01*
X5456428Y4231487D01*
X5446928Y4241292D01*
X5436209Y4249775D01*
X5424474Y4256735D01*
X5411927Y4262018D01*
X5398770Y4265625D01*
X5385257Y4267454D01*
X5371642Y4267454D01*
X5358130Y4265625D01*
X5344972Y4262018D01*
X5332425Y4256735D01*
X5320690Y4249775D01*
X5309971Y4241292D01*
X5300472Y4231487D01*
X5292394Y4220514D01*
X5285841Y4208576D01*
X5280964Y4195826D01*
X5277764Y4182567D01*
X5276443Y4169003D01*
X5276900Y4155389D01*
X5279136Y4141927D01*
X5283200Y4128922D01*
X5288940Y4116527D01*
X5296255Y4105046D01*
X5305044Y4094632D01*
X5315204Y4085488D01*
X5326430Y4077766D01*
X5338572Y4071620D01*
X5351475Y4067149D01*
X5364835Y4064406D01*
G37*
G36*
X5899150Y4063492D02*
G01*
X5912764Y4064406D01*
X5926124Y4067149D01*
X5939028Y4071620D01*
X5951169Y4077766D01*
X5962396Y4085488D01*
X5972556Y4094632D01*
X5981344Y4105046D01*
X5988659Y4116527D01*
X5994400Y4128922D01*
X5998464Y4141927D01*
X6000699Y4155389D01*
X6001156Y4169003D01*
X5999835Y4182567D01*
X5996635Y4195826D01*
X5991758Y4208576D01*
X5985205Y4220514D01*
X5977128Y4231487D01*
X5967628Y4241292D01*
X5956909Y4249775D01*
X5945174Y4256735D01*
X5932627Y4262018D01*
X5919470Y4265625D01*
X5905957Y4267454D01*
X5892342Y4267454D01*
X5878830Y4265625D01*
X5865672Y4262018D01*
X5853125Y4256735D01*
X5841390Y4249775D01*
X5830671Y4241292D01*
X5821172Y4231487D01*
X5813094Y4220514D01*
X5806541Y4208576D01*
X5801664Y4195826D01*
X5798464Y4182567D01*
X5797143Y4169003D01*
X5797600Y4155389D01*
X5799836Y4141927D01*
X5803900Y4128922D01*
X5809640Y4116527D01*
X5816955Y4105046D01*
X5825744Y4094632D01*
X5835904Y4085488D01*
X5847130Y4077766D01*
X5859272Y4071620D01*
X5872175Y4067149D01*
X5885535Y4064406D01*
G37*
G36*
X6350000Y4073956D02*
G01*
X6350000Y4121150D01*
X6302806Y4121150D01*
X6304940Y4116527D01*
X6312255Y4105046D01*
X6321044Y4094632D01*
X6331204Y4085488D01*
X6342430Y4077766D01*
G37*
G36*
X6438900Y4073956D02*
G01*
X6446469Y4077766D01*
X6457696Y4085488D01*
X6467856Y4094632D01*
X6476644Y4105046D01*
X6483959Y4116527D01*
X6486093Y4121150D01*
X6438900Y4121150D01*
G37*
G36*
X7452156Y4083050D02*
G01*
X7499350Y4083050D01*
X7499350Y4130243D01*
X7491780Y4126433D01*
X7480553Y4118711D01*
X7470394Y4109567D01*
X7461605Y4099153D01*
X7454290Y4087672D01*
G37*
G36*
X7588250Y4083050D02*
G01*
X7635443Y4083050D01*
X7633309Y4087672D01*
X7625994Y4099153D01*
X7617206Y4109567D01*
X7607046Y4118711D01*
X7595819Y4126433D01*
X7588250Y4130243D01*
G37*
G36*
X7536992Y4190746D02*
G01*
X7550607Y4190746D01*
X7564120Y4192574D01*
X7577277Y4196181D01*
X7589824Y4201464D01*
X7601559Y4208424D01*
X7612278Y4216908D01*
X7621778Y4226712D01*
X7629855Y4237685D01*
X7636408Y4249623D01*
X7641285Y4262374D01*
X7644485Y4275632D01*
X7645806Y4289196D01*
X7645349Y4302810D01*
X7643114Y4316272D01*
X7639050Y4329277D01*
X7633309Y4341672D01*
X7625994Y4353153D01*
X7617206Y4363567D01*
X7607046Y4372711D01*
X7595819Y4380433D01*
X7583678Y4386580D01*
X7570774Y4391050D01*
X7557414Y4393793D01*
X7543800Y4394708D01*
X7530185Y4393793D01*
X7516825Y4391050D01*
X7503922Y4386580D01*
X7491780Y4380433D01*
X7480553Y4372711D01*
X7470394Y4363567D01*
X7461605Y4353153D01*
X7454290Y4341672D01*
X7448550Y4329277D01*
X7444486Y4316272D01*
X7442250Y4302810D01*
X7441793Y4289196D01*
X7443114Y4275632D01*
X7446314Y4262374D01*
X7451191Y4249623D01*
X7457744Y4237685D01*
X7465822Y4226712D01*
X7475321Y4216908D01*
X7486040Y4208424D01*
X7497775Y4201464D01*
X7510322Y4196181D01*
X7523480Y4192574D01*
G37*
G36*
X6302654Y4210050D02*
G01*
X6350000Y4210050D01*
X6350000Y4257395D01*
X6348425Y4256735D01*
X6336690Y4249775D01*
X6325971Y4241292D01*
X6316472Y4231487D01*
X6308394Y4220514D01*
G37*
G36*
X6438900Y4210050D02*
G01*
X6486245Y4210050D01*
X6480505Y4220514D01*
X6472428Y4231487D01*
X6462928Y4241292D01*
X6452209Y4249775D01*
X6440474Y4256735D01*
X6438900Y4257395D01*
G37*
G36*
X8458200Y4433112D02*
G01*
X8475116Y4434027D01*
X8491778Y4436872D01*
X8508034Y4441545D01*
X8523681Y4448048D01*
X8538464Y4456226D01*
X8552281Y4466031D01*
X8564880Y4477308D01*
X8576157Y4489907D01*
X8585962Y4503724D01*
X8594140Y4518507D01*
X8600643Y4534154D01*
X8605316Y4550410D01*
X8608161Y4567072D01*
X8609076Y4583988D01*
X8608161Y4600905D01*
X8605316Y4617567D01*
X8600643Y4633823D01*
X8594140Y4649470D01*
X8585962Y4664252D01*
X8576157Y4678070D01*
X8564880Y4690668D01*
X8552281Y4701946D01*
X8538464Y4711750D01*
X8523681Y4719929D01*
X8508034Y4726432D01*
X8491778Y4731105D01*
X8475116Y4733950D01*
X8458200Y4734864D01*
X8441283Y4733950D01*
X8424621Y4731105D01*
X8408365Y4726432D01*
X8392718Y4719929D01*
X8377936Y4711750D01*
X8364118Y4701946D01*
X8351520Y4690668D01*
X8340242Y4678070D01*
X8330438Y4664252D01*
X8322259Y4649470D01*
X8315756Y4633823D01*
X8311083Y4617567D01*
X8308238Y4600905D01*
X8307324Y4583988D01*
X8308238Y4567072D01*
X8311083Y4550410D01*
X8315756Y4534154D01*
X8322259Y4518507D01*
X8330438Y4503724D01*
X8340242Y4489907D01*
X8351520Y4477308D01*
X8364118Y4466031D01*
X8377936Y4456226D01*
X8392718Y4448048D01*
X8408365Y4441545D01*
X8424621Y4436872D01*
X8441283Y4434027D01*
G37*
G36*
X7536992Y4444746D02*
G01*
X7550607Y4444746D01*
X7564120Y4446574D01*
X7577277Y4450181D01*
X7589824Y4455464D01*
X7601559Y4462424D01*
X7612278Y4470908D01*
X7621778Y4480712D01*
X7629855Y4491685D01*
X7636408Y4503623D01*
X7641285Y4516374D01*
X7644485Y4529632D01*
X7645806Y4543196D01*
X7645349Y4556810D01*
X7643114Y4570272D01*
X7639050Y4583277D01*
X7633309Y4595672D01*
X7625994Y4607153D01*
X7617206Y4617567D01*
X7607046Y4626711D01*
X7595819Y4634433D01*
X7583678Y4640580D01*
X7570774Y4645050D01*
X7557414Y4647793D01*
X7543800Y4648708D01*
X7530185Y4647793D01*
X7516825Y4645050D01*
X7503922Y4640580D01*
X7491780Y4634433D01*
X7480553Y4626711D01*
X7470394Y4617567D01*
X7461605Y4607153D01*
X7454290Y4595672D01*
X7448550Y4583277D01*
X7444486Y4570272D01*
X7442250Y4556810D01*
X7441793Y4543196D01*
X7443114Y4529632D01*
X7446314Y4516374D01*
X7451191Y4503623D01*
X7457744Y4491685D01*
X7465822Y4480712D01*
X7475321Y4470908D01*
X7486040Y4462424D01*
X7497775Y4455464D01*
X7510322Y4450181D01*
X7523480Y4446574D01*
G37*
G36*
X7002576Y4700574D02*
G01*
X7022033Y4701997D01*
X7041235Y4705248D01*
X7060031Y4710379D01*
X7078268Y4717288D01*
X7095693Y4725924D01*
X7112253Y4736236D01*
X7127748Y4748022D01*
X7142022Y4761331D01*
X7154976Y4775911D01*
X7166406Y4791659D01*
X7176262Y4808474D01*
X7184491Y4826152D01*
X7190943Y4844542D01*
X7195616Y4863439D01*
X7198461Y4882743D01*
X7199375Y4902200D01*
X7198461Y4921656D01*
X7195616Y4940960D01*
X7190943Y4959858D01*
X7184491Y4978247D01*
X7176262Y4995926D01*
X7166406Y5012740D01*
X7154976Y5028488D01*
X7142022Y5043068D01*
X7127748Y5056378D01*
X7112253Y5068163D01*
X7095693Y5078476D01*
X7078268Y5087112D01*
X7060031Y5094020D01*
X7041235Y5099151D01*
X7022033Y5102402D01*
X7002576Y5103825D01*
X6983069Y5103368D01*
X6963765Y5101031D01*
X6944715Y5096814D01*
X6926173Y5090769D01*
X6908292Y5082997D01*
X6891274Y5073548D01*
X6875221Y5062474D01*
X6860336Y5049875D01*
X6846722Y5035956D01*
X6834530Y5020767D01*
X6823862Y5004460D01*
X6814769Y4987188D01*
X6807453Y4969154D01*
X6801866Y4950460D01*
X6798106Y4931359D01*
X6796227Y4911953D01*
X6796227Y4892446D01*
X6798106Y4873040D01*
X6801866Y4853940D01*
X6807453Y4835245D01*
X6814769Y4817211D01*
X6823862Y4799939D01*
X6834530Y4783632D01*
X6846722Y4768443D01*
X6860336Y4754524D01*
X6875221Y4741926D01*
X6891274Y4730851D01*
X6908292Y4721402D01*
X6926173Y4713630D01*
X6944715Y4707585D01*
X6963765Y4703368D01*
X6983069Y4701032D01*
G37*
G36*
X1276146Y5149037D02*
G01*
X1289253Y5149037D01*
X1302308Y5150815D01*
X1314958Y5154371D01*
X1326997Y5159603D01*
X1338224Y5166461D01*
X1348435Y5174742D01*
X1357376Y5184343D01*
X1364945Y5195062D01*
X1370990Y5206746D01*
X1375410Y5219141D01*
X1378102Y5231993D01*
X1378966Y5245100D01*
X1378102Y5258206D01*
X1375410Y5271058D01*
X1370990Y5283454D01*
X1364945Y5295138D01*
X1357376Y5305856D01*
X1348435Y5315458D01*
X1338224Y5323738D01*
X1326997Y5330596D01*
X1314958Y5335828D01*
X1302308Y5339384D01*
X1289253Y5341162D01*
X1276146Y5341162D01*
X1263091Y5339384D01*
X1250442Y5335828D01*
X1238402Y5330596D01*
X1227175Y5323738D01*
X1216964Y5315458D01*
X1208024Y5305856D01*
X1200454Y5295138D01*
X1194409Y5283454D01*
X1189990Y5271058D01*
X1187297Y5258206D01*
X1186434Y5245100D01*
X1187297Y5231993D01*
X1189990Y5219141D01*
X1194409Y5206746D01*
X1200454Y5195062D01*
X1208024Y5184343D01*
X1216964Y5174742D01*
X1227175Y5166461D01*
X1238402Y5159603D01*
X1250442Y5154371D01*
X1263091Y5150815D01*
G37*
G36*
X1276146Y5403037D02*
G01*
X1289253Y5403037D01*
X1302308Y5404815D01*
X1314958Y5408371D01*
X1326997Y5413603D01*
X1338224Y5420461D01*
X1348435Y5428742D01*
X1357376Y5438343D01*
X1364945Y5449062D01*
X1370990Y5460746D01*
X1375410Y5473141D01*
X1378102Y5485993D01*
X1378966Y5499100D01*
X1378102Y5512206D01*
X1375410Y5525058D01*
X1370990Y5537454D01*
X1364945Y5549138D01*
X1357376Y5559856D01*
X1348435Y5569458D01*
X1338224Y5577738D01*
X1326997Y5584596D01*
X1314958Y5589828D01*
X1302308Y5593384D01*
X1289253Y5595162D01*
X1276146Y5595162D01*
X1263091Y5593384D01*
X1250442Y5589828D01*
X1238402Y5584596D01*
X1227175Y5577738D01*
X1216964Y5569458D01*
X1208024Y5559856D01*
X1200454Y5549138D01*
X1194409Y5537454D01*
X1189990Y5525058D01*
X1187297Y5512206D01*
X1186434Y5499100D01*
X1187297Y5485993D01*
X1189990Y5473141D01*
X1194409Y5460746D01*
X1200454Y5449062D01*
X1208024Y5438343D01*
X1216964Y5428742D01*
X1227175Y5420461D01*
X1238402Y5413603D01*
X1250442Y5408371D01*
X1263091Y5404815D01*
G37*
G36*
X9232900Y5476697D02*
G01*
X9245142Y5477611D01*
X9257080Y5480202D01*
X9268561Y5484469D01*
X9279331Y5490362D01*
X9289135Y5497677D01*
X9297822Y5506364D01*
X9305137Y5516168D01*
X9311030Y5526938D01*
X9315297Y5538419D01*
X9317888Y5550357D01*
X9318802Y5562600D01*
X9317888Y5574842D01*
X9315297Y5586780D01*
X9311030Y5598261D01*
X9305137Y5609031D01*
X9297822Y5618835D01*
X9289135Y5627522D01*
X9279331Y5634837D01*
X9268561Y5640730D01*
X9257080Y5644997D01*
X9244431Y5647740D01*
X9241231Y5649061D01*
X9238640Y5651296D01*
X9237014Y5654294D01*
X9236405Y5658002D01*
X9237014Y5661406D01*
X9238640Y5664403D01*
X9241231Y5666638D01*
X9244431Y5667959D01*
X9257080Y5670702D01*
X9268561Y5674969D01*
X9279331Y5680862D01*
X9289135Y5688177D01*
X9297822Y5696864D01*
X9305137Y5706668D01*
X9311030Y5717438D01*
X9315297Y5728919D01*
X9317888Y5740857D01*
X9318802Y5753100D01*
X9317888Y5765342D01*
X9315297Y5777280D01*
X9311030Y5788761D01*
X9305137Y5799531D01*
X9297822Y5809335D01*
X9289135Y5818022D01*
X9279331Y5825337D01*
X9268561Y5831230D01*
X9257080Y5835497D01*
X9245142Y5838088D01*
X9232900Y5839002D01*
X9220657Y5838088D01*
X9208719Y5835497D01*
X9197238Y5831230D01*
X9186468Y5825337D01*
X9176664Y5818022D01*
X9167977Y5809335D01*
X9160662Y5799531D01*
X9154769Y5788761D01*
X9150502Y5777280D01*
X9147911Y5765342D01*
X9146997Y5753100D01*
X9147911Y5740857D01*
X9150502Y5728919D01*
X9154769Y5717438D01*
X9160662Y5706668D01*
X9167977Y5696864D01*
X9176664Y5688177D01*
X9186468Y5680862D01*
X9197238Y5674969D01*
X9208719Y5670702D01*
X9221368Y5667959D01*
X9224568Y5666638D01*
X9227159Y5664403D01*
X9228785Y5661406D01*
X9229394Y5657697D01*
X9228785Y5654294D01*
X9227159Y5651296D01*
X9224568Y5649061D01*
X9221368Y5647740D01*
X9208719Y5644997D01*
X9197238Y5640730D01*
X9186468Y5634837D01*
X9176664Y5627522D01*
X9167977Y5618835D01*
X9160662Y5609031D01*
X9154769Y5598261D01*
X9150502Y5586780D01*
X9147911Y5574842D01*
X9146997Y5562600D01*
X9147911Y5550357D01*
X9150502Y5538419D01*
X9154769Y5526938D01*
X9160662Y5516168D01*
X9167977Y5506364D01*
X9176664Y5497677D01*
X9186468Y5490362D01*
X9197238Y5484469D01*
X9208719Y5480202D01*
X9220657Y5477611D01*
G37*
G36*
X1276146Y5657037D02*
G01*
X1289253Y5657037D01*
X1302308Y5658815D01*
X1314958Y5662371D01*
X1326997Y5667603D01*
X1338224Y5674461D01*
X1348435Y5682742D01*
X1357376Y5692343D01*
X1364945Y5703062D01*
X1370990Y5714746D01*
X1375410Y5727141D01*
X1378102Y5739993D01*
X1378966Y5753100D01*
X1378102Y5766206D01*
X1375410Y5779058D01*
X1370990Y5791454D01*
X1364945Y5803138D01*
X1357376Y5813856D01*
X1348435Y5823458D01*
X1338224Y5831738D01*
X1326997Y5838596D01*
X1314958Y5843828D01*
X1302308Y5847384D01*
X1289253Y5849162D01*
X1276146Y5849162D01*
X1263091Y5847384D01*
X1250442Y5843828D01*
X1238402Y5838596D01*
X1227175Y5831738D01*
X1216964Y5823458D01*
X1208024Y5813856D01*
X1200454Y5803138D01*
X1194409Y5791454D01*
X1189990Y5779058D01*
X1187297Y5766206D01*
X1186434Y5753100D01*
X1187297Y5739993D01*
X1189990Y5727141D01*
X1194409Y5714746D01*
X1200454Y5703062D01*
X1208024Y5692343D01*
X1216964Y5682742D01*
X1227175Y5674461D01*
X1238402Y5667603D01*
X1250442Y5662371D01*
X1263091Y5658815D01*
G37*
G36*
X9269272Y5865825D02*
G01*
X9279331Y5871362D01*
X9289135Y5878677D01*
X9297822Y5887364D01*
X9305137Y5897168D01*
X9310674Y5907227D01*
X9269272Y5907227D01*
G37*
G36*
X9196527Y5865825D02*
G01*
X9196527Y5907227D01*
X9155125Y5907227D01*
X9160662Y5897168D01*
X9167977Y5887364D01*
X9176664Y5878677D01*
X9186468Y5871362D01*
G37*
G36*
X1276146Y5911037D02*
G01*
X1289253Y5911037D01*
X1302308Y5912815D01*
X1314958Y5916371D01*
X1326997Y5921603D01*
X1338224Y5928461D01*
X1348435Y5936742D01*
X1357376Y5946343D01*
X1364945Y5957062D01*
X1370990Y5968746D01*
X1375410Y5981141D01*
X1378102Y5993993D01*
X1378966Y6007100D01*
X1378102Y6020206D01*
X1375410Y6033058D01*
X1370990Y6045454D01*
X1364945Y6057138D01*
X1357376Y6067856D01*
X1348435Y6077458D01*
X1338224Y6085738D01*
X1326997Y6092596D01*
X1314958Y6097828D01*
X1302308Y6101384D01*
X1289253Y6103162D01*
X1276146Y6103162D01*
X1263091Y6101384D01*
X1250442Y6097828D01*
X1238402Y6092596D01*
X1227175Y6085738D01*
X1216964Y6077458D01*
X1208024Y6067856D01*
X1200454Y6057138D01*
X1194409Y6045454D01*
X1189990Y6033058D01*
X1187297Y6020206D01*
X1186434Y6007100D01*
X1187297Y5993993D01*
X1189990Y5981141D01*
X1194409Y5968746D01*
X1200454Y5957062D01*
X1208024Y5946343D01*
X1216964Y5936742D01*
X1227175Y5928461D01*
X1238402Y5921603D01*
X1250442Y5916371D01*
X1263091Y5912815D01*
G37*
G36*
X8458200Y5933084D02*
G01*
X8475116Y5934049D01*
X8491778Y5936894D01*
X8508034Y5941568D01*
X8523681Y5948019D01*
X8538464Y5956249D01*
X8552281Y5966002D01*
X8564880Y5977280D01*
X8576157Y5989929D01*
X8585962Y6003696D01*
X8594140Y6018530D01*
X8600643Y6034176D01*
X8605316Y6050432D01*
X8608161Y6067094D01*
X8609076Y6084011D01*
X8608161Y6100876D01*
X8605316Y6117590D01*
X8600643Y6133846D01*
X8594140Y6149441D01*
X8585962Y6164275D01*
X8576157Y6178092D01*
X8564880Y6190691D01*
X8552281Y6201968D01*
X8538464Y6211773D01*
X8523681Y6219952D01*
X8508034Y6226403D01*
X8491778Y6231077D01*
X8475116Y6233922D01*
X8458200Y6234887D01*
X8441283Y6233922D01*
X8424621Y6231077D01*
X8408365Y6226403D01*
X8392718Y6219952D01*
X8377936Y6211773D01*
X8364118Y6201968D01*
X8351520Y6190691D01*
X8340242Y6178092D01*
X8330438Y6164275D01*
X8322259Y6149441D01*
X8315756Y6133846D01*
X8311083Y6117590D01*
X8308238Y6100876D01*
X8307324Y6084011D01*
X8308238Y6067094D01*
X8311083Y6050432D01*
X8315756Y6034176D01*
X8322259Y6018530D01*
X8330438Y6003696D01*
X8340242Y5989929D01*
X8351520Y5977280D01*
X8364118Y5966002D01*
X8377936Y5956249D01*
X8392718Y5948019D01*
X8408365Y5941568D01*
X8424621Y5936894D01*
X8441283Y5934049D01*
G37*
G36*
X9155125Y5979972D02*
G01*
X9196527Y5979972D01*
X9196527Y6021374D01*
X9186468Y6015837D01*
X9176664Y6008522D01*
X9167977Y5999835D01*
X9160662Y5990031D01*
G37*
G36*
X9269272Y5979972D02*
G01*
X9310674Y5979972D01*
X9305137Y5990031D01*
X9297822Y5999835D01*
X9289135Y6008522D01*
X9279331Y6015837D01*
X9269272Y6021374D01*
G37*
G36*
X1241145Y6174435D02*
G01*
X1241145Y6219545D01*
X1196035Y6219545D01*
X1200454Y6211062D01*
X1208024Y6200343D01*
X1216964Y6190742D01*
X1227175Y6182461D01*
X1238402Y6175603D01*
G37*
G36*
X1324254Y6174435D02*
G01*
X1326997Y6175603D01*
X1338224Y6182461D01*
X1348435Y6190742D01*
X1357376Y6200343D01*
X1364945Y6211062D01*
X1369364Y6219545D01*
X1324254Y6219545D01*
G37*
G36*
X1324254Y6302654D02*
G01*
X1369364Y6302654D01*
X1364945Y6311138D01*
X1357376Y6321856D01*
X1348435Y6331458D01*
X1338224Y6339738D01*
X1326997Y6346596D01*
X1324254Y6347764D01*
G37*
G36*
X1196035Y6302654D02*
G01*
X1241145Y6302654D01*
X1241145Y6347764D01*
X1238402Y6346596D01*
X1227175Y6339738D01*
X1216964Y6331458D01*
X1208024Y6321856D01*
X1200454Y6311138D01*
G37*
G36*
X1241145Y6428435D02*
G01*
X1241145Y6473545D01*
X1196035Y6473545D01*
X1200454Y6465062D01*
X1208024Y6454343D01*
X1216964Y6444742D01*
X1227175Y6436461D01*
X1238402Y6429603D01*
G37*
G36*
X1324254Y6428435D02*
G01*
X1326997Y6429603D01*
X1338224Y6436461D01*
X1348435Y6444742D01*
X1357376Y6454343D01*
X1364945Y6465062D01*
X1369364Y6473545D01*
X1324254Y6473545D01*
G37*
G36*
X7898688Y6440424D02*
G01*
X7915605Y6441338D01*
X7932267Y6444183D01*
X7948523Y6448856D01*
X7964170Y6455359D01*
X7978952Y6463538D01*
X7992770Y6473342D01*
X8005368Y6484620D01*
X8016646Y6497218D01*
X8026450Y6511035D01*
X8034629Y6525818D01*
X8041131Y6541465D01*
X8045805Y6557721D01*
X8048650Y6574383D01*
X8049564Y6591300D01*
X8048650Y6608216D01*
X8045805Y6624878D01*
X8041131Y6641134D01*
X8034629Y6656781D01*
X8026450Y6671564D01*
X8016646Y6685381D01*
X8005368Y6697980D01*
X7992770Y6709257D01*
X7978952Y6719062D01*
X7964170Y6727240D01*
X7948523Y6733743D01*
X7932267Y6738416D01*
X7915605Y6741261D01*
X7898688Y6742175D01*
X7881772Y6741261D01*
X7865109Y6738416D01*
X7848853Y6733743D01*
X7833207Y6727240D01*
X7818424Y6719062D01*
X7804607Y6709257D01*
X7792008Y6697980D01*
X7780731Y6685381D01*
X7770926Y6671564D01*
X7762748Y6656781D01*
X7756245Y6641134D01*
X7751572Y6624878D01*
X7748727Y6608216D01*
X7747812Y6591300D01*
X7748727Y6574383D01*
X7751572Y6557721D01*
X7756245Y6541465D01*
X7762748Y6525818D01*
X7770926Y6511035D01*
X7780731Y6497218D01*
X7792008Y6484620D01*
X7804607Y6473342D01*
X7818424Y6463538D01*
X7833207Y6455359D01*
X7848853Y6448856D01*
X7865109Y6444183D01*
X7881772Y6441338D01*
G37*
G36*
X9398711Y6440424D02*
G01*
X9415576Y6441338D01*
X9432290Y6444183D01*
X9448546Y6448856D01*
X9464141Y6455359D01*
X9478975Y6463538D01*
X9492792Y6473342D01*
X9505391Y6484620D01*
X9516668Y6497218D01*
X9526473Y6511035D01*
X9534652Y6525818D01*
X9541103Y6541465D01*
X9545777Y6557721D01*
X9548622Y6574383D01*
X9549587Y6591300D01*
X9548622Y6608216D01*
X9545777Y6624878D01*
X9541103Y6641134D01*
X9534652Y6656781D01*
X9526473Y6671564D01*
X9516668Y6685381D01*
X9505391Y6697980D01*
X9492792Y6709257D01*
X9478975Y6719062D01*
X9464141Y6727240D01*
X9448546Y6733743D01*
X9432290Y6738416D01*
X9415576Y6741261D01*
X9398711Y6742175D01*
X9381794Y6741261D01*
X9365132Y6738416D01*
X9348876Y6733743D01*
X9333230Y6727240D01*
X9318396Y6719062D01*
X9304629Y6709257D01*
X9291980Y6697980D01*
X9280702Y6685381D01*
X9270949Y6671564D01*
X9262719Y6656781D01*
X9256268Y6641134D01*
X9251594Y6624878D01*
X9248749Y6608216D01*
X9247784Y6591300D01*
X9248749Y6574383D01*
X9251594Y6557721D01*
X9256268Y6541465D01*
X9262719Y6525818D01*
X9270949Y6511035D01*
X9280702Y6497218D01*
X9291980Y6484620D01*
X9304629Y6473342D01*
X9318396Y6463538D01*
X9333230Y6455359D01*
X9348876Y6448856D01*
X9365132Y6444183D01*
X9381794Y6441338D01*
G37*
G36*
X1324254Y6556654D02*
G01*
X1369364Y6556654D01*
X1364945Y6565138D01*
X1357376Y6575856D01*
X1348435Y6585458D01*
X1338224Y6593738D01*
X1326997Y6600596D01*
X1324254Y6601764D01*
G37*
G36*
X1196035Y6556654D02*
G01*
X1241145Y6556654D01*
X1241145Y6601764D01*
X1238402Y6600596D01*
X1227175Y6593738D01*
X1216964Y6585458D01*
X1208024Y6575856D01*
X1200454Y6565138D01*
G37*
G36*
X5204663Y6588252D02*
G01*
X5223205Y6589725D01*
X5241544Y6593027D01*
X5259425Y6598259D01*
X5276697Y6605270D01*
X5293106Y6614007D01*
X5308549Y6624421D01*
X5322874Y6636359D01*
X5335879Y6649669D01*
X5347411Y6664299D01*
X5357418Y6679996D01*
X5365750Y6696659D01*
X5372303Y6714083D01*
X5377078Y6732117D01*
X5379923Y6750507D01*
X5380888Y6769100D01*
X5379923Y6787692D01*
X5377078Y6806082D01*
X5372303Y6824116D01*
X5365750Y6841540D01*
X5357418Y6858203D01*
X5347411Y6873900D01*
X5335879Y6888530D01*
X5322874Y6901840D01*
X5308549Y6913778D01*
X5293106Y6924192D01*
X5276697Y6932930D01*
X5259425Y6939940D01*
X5241544Y6945172D01*
X5223205Y6948474D01*
X5204663Y6949948D01*
X5186019Y6949440D01*
X5167579Y6947052D01*
X5149443Y6942785D01*
X5131816Y6936689D01*
X5114950Y6928764D01*
X5098999Y6919163D01*
X5084114Y6907987D01*
X5070449Y6895338D01*
X5058156Y6881368D01*
X5047335Y6866178D01*
X5038191Y6849973D01*
X5030724Y6832904D01*
X5025034Y6815175D01*
X5021224Y6796938D01*
X5019344Y6778396D01*
X5019344Y6759803D01*
X5021224Y6741261D01*
X5025034Y6723024D01*
X5030724Y6705295D01*
X5038191Y6688226D01*
X5047335Y6672021D01*
X5058156Y6656831D01*
X5070449Y6642862D01*
X5084114Y6630212D01*
X5098999Y6619036D01*
X5114950Y6609435D01*
X5131816Y6601510D01*
X5149443Y6595414D01*
X5167579Y6591147D01*
X5186019Y6588759D01*
G37*
G36*
X7002576Y6605574D02*
G01*
X7022033Y6606997D01*
X7041235Y6610248D01*
X7060031Y6615379D01*
X7078268Y6622288D01*
X7095693Y6630924D01*
X7112253Y6641236D01*
X7127748Y6653022D01*
X7142022Y6666331D01*
X7154976Y6680911D01*
X7166406Y6696659D01*
X7176262Y6713474D01*
X7184491Y6731152D01*
X7190943Y6749542D01*
X7195616Y6768439D01*
X7198461Y6787743D01*
X7199375Y6807200D01*
X7198461Y6826656D01*
X7195616Y6845960D01*
X7190943Y6864858D01*
X7184491Y6883247D01*
X7176262Y6900925D01*
X7166406Y6917740D01*
X7154976Y6933488D01*
X7142022Y6948068D01*
X7127748Y6961378D01*
X7112253Y6973163D01*
X7095693Y6983475D01*
X7078268Y6992112D01*
X7060031Y6999020D01*
X7041235Y7004151D01*
X7022033Y7007402D01*
X7002576Y7008825D01*
X6983069Y7008368D01*
X6963765Y7006031D01*
X6944715Y7001814D01*
X6926173Y6995769D01*
X6908292Y6987997D01*
X6891274Y6978548D01*
X6875221Y6967474D01*
X6860336Y6954875D01*
X6846722Y6940956D01*
X6834530Y6925767D01*
X6823862Y6909460D01*
X6814769Y6892188D01*
X6807453Y6874154D01*
X6801866Y6855459D01*
X6798106Y6836359D01*
X6796227Y6816953D01*
X6796227Y6797446D01*
X6798106Y6778040D01*
X6801866Y6758940D01*
X6807453Y6740245D01*
X6814769Y6722211D01*
X6823862Y6704939D01*
X6834530Y6688632D01*
X6846722Y6673443D01*
X6860336Y6659524D01*
X6875221Y6646925D01*
X6891274Y6635851D01*
X6908292Y6626402D01*
X6926173Y6618630D01*
X6944715Y6612585D01*
X6963765Y6608368D01*
X6983069Y6606031D01*
G37*

%LPD*%
D10*
G01*
X8458200Y6084011D03*
G01*
X8458200Y4583988D03*
G01*
X9398711Y6591300D03*
G01*
X7898688Y6591300D03*
G36*
X2885211Y-3680688D02*
G01*
X2885871Y-3670045D01*
X2887878Y-3659555D01*
X2891180Y-3649421D01*
X2895727Y-3639743D01*
X2901441Y-3630726D01*
X2908249Y-3622522D01*
X2916021Y-3615207D01*
X2924657Y-3608933D01*
X2934004Y-3603777D01*
X2943936Y-3599865D01*
X2954274Y-3597198D01*
X2964865Y-3595878D01*
X2975533Y-3595878D01*
X2986125Y-3597198D01*
X2996463Y-3599865D01*
X3006394Y-3603777D01*
X3015741Y-3608933D01*
X3024377Y-3615207D01*
X3032150Y-3622522D01*
X3038957Y-3630726D01*
X3044697Y-3639743D01*
X3049219Y-3649421D01*
X3052521Y-3659555D01*
X3054527Y-3670045D01*
X3055188Y-3680688D01*
X3055188Y-3710711D01*
X3054527Y-3721354D01*
X3052521Y-3731844D01*
X3049219Y-3741978D01*
X3044697Y-3751656D01*
X3038957Y-3760673D01*
X3032150Y-3768877D01*
X3024377Y-3776192D01*
X3015741Y-3782466D01*
X3006394Y-3787622D01*
X2996463Y-3791534D01*
X2986125Y-3794201D01*
X2975533Y-3795521D01*
X2964865Y-3795521D01*
X2954274Y-3794201D01*
X2943936Y-3791534D01*
X2934004Y-3787622D01*
X2924657Y-3782466D01*
X2916021Y-3776192D01*
X2908249Y-3768877D01*
X2901441Y-3760673D01*
X2895727Y-3751656D01*
X2891180Y-3741978D01*
X2887878Y-3731844D01*
X2885871Y-3721354D01*
X2885211Y-3710711D01*
G37*
D11*
G01*
X3478199Y-3695700D03*
G36*
X3139211Y-3680688D02*
G01*
X3139871Y-3670045D01*
X3141878Y-3659555D01*
X3145180Y-3649421D01*
X3149701Y-3639743D01*
X3155441Y-3630726D01*
X3162249Y-3622522D01*
X3170021Y-3615207D01*
X3178657Y-3608933D01*
X3188004Y-3603777D01*
X3197936Y-3599865D01*
X3208274Y-3597198D01*
X3218865Y-3595878D01*
X3229533Y-3595878D01*
X3240125Y-3597198D01*
X3250463Y-3599865D01*
X3260394Y-3603777D01*
X3269741Y-3608933D01*
X3278377Y-3615207D01*
X3286150Y-3622522D01*
X3292957Y-3630726D01*
X3298697Y-3639743D01*
X3303219Y-3649421D01*
X3306521Y-3659555D01*
X3308527Y-3670045D01*
X3309188Y-3680688D01*
X3309188Y-3710711D01*
X3308527Y-3721354D01*
X3306521Y-3731844D01*
X3303219Y-3741978D01*
X3298697Y-3751656D01*
X3292957Y-3760673D01*
X3286150Y-3768877D01*
X3278377Y-3776192D01*
X3269741Y-3782466D01*
X3260394Y-3787622D01*
X3250463Y-3791534D01*
X3240125Y-3794201D01*
X3229533Y-3795521D01*
X3218865Y-3795521D01*
X3208274Y-3794201D01*
X3197936Y-3791534D01*
X3188004Y-3787622D01*
X3178657Y-3782466D01*
X3170021Y-3776192D01*
X3162249Y-3768877D01*
X3155441Y-3760673D01*
X3149701Y-3751656D01*
X3145180Y-3741978D01*
X3141878Y-3731844D01*
X3139871Y-3721354D01*
X3139211Y-3710711D01*
G37*
G36*
X2631211Y-3680688D02*
G01*
X2631871Y-3670045D01*
X2633878Y-3659555D01*
X2637180Y-3649421D01*
X2641727Y-3639743D01*
X2647441Y-3630726D01*
X2654249Y-3622522D01*
X2662021Y-3615207D01*
X2670657Y-3608933D01*
X2680004Y-3603777D01*
X2689936Y-3599865D01*
X2700274Y-3597198D01*
X2710865Y-3595878D01*
X2721533Y-3595878D01*
X2732125Y-3597198D01*
X2742463Y-3599865D01*
X2752394Y-3603777D01*
X2761741Y-3608933D01*
X2770377Y-3615207D01*
X2778150Y-3622522D01*
X2784957Y-3630726D01*
X2790697Y-3639743D01*
X2795219Y-3649421D01*
X2798521Y-3659555D01*
X2800527Y-3670045D01*
X2801188Y-3680688D01*
X2801188Y-3710711D01*
X2800527Y-3721354D01*
X2798521Y-3731844D01*
X2795219Y-3741978D01*
X2790697Y-3751656D01*
X2784957Y-3760673D01*
X2778150Y-3768877D01*
X2770377Y-3776192D01*
X2761741Y-3782466D01*
X2752394Y-3787622D01*
X2742463Y-3791534D01*
X2732125Y-3794201D01*
X2721533Y-3795521D01*
X2710865Y-3795521D01*
X2700274Y-3794201D01*
X2689936Y-3791534D01*
X2680004Y-3787622D01*
X2670657Y-3782466D01*
X2662021Y-3776192D01*
X2654249Y-3768877D01*
X2647441Y-3760673D01*
X2641727Y-3751656D01*
X2637180Y-3741978D01*
X2633878Y-3731844D01*
X2631871Y-3721354D01*
X2631211Y-3710711D01*
G37*
D12*
G01*
X6362700Y-2921000D03*
D13*
G01*
X6362700Y-3175000D03*
G01*
X6108700Y-2921000D03*
G01*
X6108700Y-3175000D03*
G01*
X5854700Y-2921000D03*
G01*
X5854700Y-3175000D03*
G01*
X5600700Y-2921000D03*
G01*
X5600700Y-3175000D03*
G01*
X5346700Y-2921000D03*
G01*
X5346700Y-3175000D03*
G01*
X5092700Y-2921000D03*
G01*
X5092700Y-3175000D03*
G01*
X4838700Y-2921000D03*
G01*
X4838700Y-3175000D03*
G01*
X4584700Y-2921000D03*
G01*
X4584700Y-3175000D03*
G01*
X4330700Y-2921000D03*
G01*
X4330700Y-3175000D03*
G01*
X4076700Y-2921000D03*
G01*
X4076700Y-3175000D03*
G01*
X3822700Y-2921000D03*
G01*
X3822700Y-3175000D03*
G01*
X3568700Y-2921000D03*
G01*
X3568700Y-3175000D03*
G01*
X3314700Y-2921000D03*
G01*
X3314700Y-3175000D03*
G01*
X3060700Y-2921000D03*
G01*
X3060700Y-3175000D03*
G01*
X2806700Y-2921000D03*
G01*
X2806700Y-3175000D03*
G01*
X2552700Y-2921000D03*
G01*
X2552700Y-3175000D03*
G01*
X2298700Y-2921000D03*
G01*
X2298700Y-3175000D03*
G01*
X2044700Y-2921000D03*
G01*
X2044700Y-3175000D03*
G01*
X1790700Y-2921000D03*
G01*
X1790700Y-3175000D03*
G01*
X1536700Y-2921000D03*
G01*
X1536700Y-3175000D03*
D14*
G01*
X1651000Y-3695700D03*
D15*
G01*
X1905000Y-3695700D03*
D16*
G01*
X9232900Y5562600D03*
G01*
X9232900Y5753100D03*
G01*
X9232900Y5943600D03*
D17*
G01*
X6648450Y4165600D03*
G01*
X6394450Y4165600D03*
G01*
X6153150Y4165600D03*
G01*
X5899150Y4165600D03*
G01*
X5632450Y4165600D03*
G01*
X5378450Y4165600D03*
G01*
X5137150Y4165600D03*
G01*
X4883150Y4165600D03*
G01*
X4629150Y4165600D03*
G01*
X4375150Y4165600D03*
G01*
X7543800Y4546600D03*
G01*
X7543800Y4292600D03*
G01*
X7543800Y4038600D03*
D19*
G01*
X1282700Y6515100D03*
G01*
X1282700Y6261100D03*
G01*
X1282700Y6007100D03*
G01*
X1282700Y5753100D03*
G01*
X1282700Y5499100D03*
G01*
X1282700Y5245100D03*
D20*
G01*
X6997700Y6807200D03*
G01*
X6997700Y4902200D03*
D17*
G01*
X3848100Y3213100D03*
G01*
X3594100Y3213100D03*
G01*
X3340100Y3213100D03*
G01*
X3086100Y3213100D03*
M02*
