G04 Layer: TopSilkscreenLayer*
G04 EasyEDA v6.5.51, 2026-03-13 16:17:01*
G04 3a29f5427acf447d8b5b9ab7626d35c2,10*
G04 Gerber Generator version 0.2*
G04 Scale: 100 percent, Rotated: No, Reflected: No *
G04 Dimensions in millimeters *
G04 leading zeros omitted , absolute positions ,4 integer and 5 decimal *
%FSLAX45Y45*%
%MOMM*%

%ADD10C,0.1524*%
%ADD11C,0.3000*%
%ADD12C,0.2032*%
%ADD13C,0.1219*%
%ADD14C,0.3020*%
%ADD15C,0.2030*%
%ADD16C,0.2540*%
%ADD17C,0.1501*%
%ADD18C,0.0116*%
%ADD19C,0.2030*%
%ADD20C,0.2000*%

%LPD*%
D10*
X8095234Y5383529D02*
G01*
X8095234Y5331713D01*
X8141970Y5326379D01*
X8136890Y5331713D01*
X8131556Y5347207D01*
X8131556Y5362955D01*
X8136890Y5378450D01*
X8147050Y5388863D01*
X8162797Y5393944D01*
X8173211Y5393944D01*
X8188706Y5388863D01*
X8199120Y5378450D01*
X8204200Y5362955D01*
X8204200Y5347207D01*
X8199120Y5331713D01*
X8194040Y5326379D01*
X8183625Y5321300D01*
X8095234Y5428234D02*
G01*
X8204200Y5428234D01*
X8095234Y5501131D02*
G01*
X8167877Y5428234D01*
X8141970Y5454395D02*
G01*
X8204200Y5501131D01*
X8636000Y6933437D02*
G01*
X8646413Y6938771D01*
X8661908Y6954265D01*
X8661908Y6845300D01*
X8727440Y6954265D02*
G01*
X8711945Y6949186D01*
X8701531Y6933437D01*
X8696197Y6907529D01*
X8696197Y6892036D01*
X8701531Y6865873D01*
X8711945Y6850379D01*
X8727440Y6845300D01*
X8737854Y6845300D01*
X8753347Y6850379D01*
X8763761Y6865873D01*
X8769095Y6892036D01*
X8769095Y6907529D01*
X8763761Y6933437D01*
X8753347Y6949186D01*
X8737854Y6954265D01*
X8727440Y6954265D01*
X8803386Y6954265D02*
G01*
X8803386Y6845300D01*
X8876029Y6954265D02*
G01*
X8803386Y6881621D01*
X8829293Y6907529D02*
G01*
X8876029Y6845300D01*
X3020822Y-3962907D02*
G01*
X3026156Y-3973321D01*
X3036570Y-3983736D01*
X3046729Y-3988815D01*
X3067558Y-3988815D01*
X3077972Y-3983736D01*
X3088386Y-3973321D01*
X3093720Y-3962907D01*
X3098800Y-3947160D01*
X3098800Y-3921252D01*
X3093720Y-3905757D01*
X3088386Y-3895344D01*
X3077972Y-3884929D01*
X3067558Y-3879850D01*
X3046729Y-3879850D01*
X3036570Y-3884929D01*
X3026156Y-3895344D01*
X3020822Y-3905757D01*
X2955290Y-3988815D02*
G01*
X2965704Y-3983736D01*
X2976118Y-3973321D01*
X2981452Y-3962907D01*
X2986531Y-3947160D01*
X2986531Y-3921252D01*
X2981452Y-3905757D01*
X2976118Y-3895344D01*
X2965704Y-3884929D01*
X2955290Y-3879850D01*
X2934715Y-3879850D01*
X2924302Y-3884929D01*
X2913888Y-3895344D01*
X2908554Y-3905757D01*
X2903474Y-3921252D01*
X2903474Y-3947160D01*
X2908554Y-3962907D01*
X2913888Y-3973321D01*
X2924302Y-3983736D01*
X2934715Y-3988815D01*
X2955290Y-3988815D01*
X2869184Y-3988815D02*
G01*
X2869184Y-3879850D01*
X2869184Y-3988815D02*
G01*
X2796540Y-3879850D01*
X2796540Y-3988815D02*
G01*
X2796540Y-3879850D01*
X2762250Y-3967987D02*
G01*
X2751836Y-3973321D01*
X2736088Y-3988815D01*
X2736088Y-3879850D01*
X3975100Y-3442715D02*
G01*
X3975100Y-3333750D01*
X3902456Y-3442715D02*
G01*
X3902456Y-3333750D01*
X3975100Y-3390900D02*
G01*
X3902456Y-3390900D01*
X3868165Y-3421887D02*
G01*
X3857752Y-3427221D01*
X3842004Y-3442715D01*
X3842004Y-3333750D01*
X1357884Y-3695700D02*
G01*
X1466850Y-3695700D01*
X1357884Y-3623055D02*
G01*
X1466850Y-3623055D01*
X1409700Y-3695700D02*
G01*
X1409700Y-3623055D01*
X1383792Y-3583431D02*
G01*
X1378712Y-3583431D01*
X1368297Y-3578352D01*
X1362963Y-3573018D01*
X1357884Y-3562604D01*
X1357884Y-3542029D01*
X1362963Y-3531615D01*
X1368297Y-3526281D01*
X1378712Y-3521202D01*
X1389126Y-3521202D01*
X1399539Y-3526281D01*
X1415034Y-3536695D01*
X1466850Y-3588765D01*
X1466850Y-3515868D01*
X9247377Y5326634D02*
G01*
X9247377Y5435600D01*
X9283700Y5326634D02*
G01*
X9211056Y5326634D01*
X9176765Y5326634D02*
G01*
X9176765Y5435600D01*
X9176765Y5326634D02*
G01*
X9130029Y5326634D01*
X9114281Y5331713D01*
X9109202Y5337047D01*
X9103868Y5347462D01*
X9103868Y5357876D01*
X9109202Y5368289D01*
X9114281Y5373370D01*
X9130029Y5378450D01*
X9176765Y5378450D01*
X9140190Y5378450D02*
G01*
X9103868Y5435600D01*
X9069577Y5347462D02*
G01*
X9059163Y5342128D01*
X9043670Y5326634D01*
X9043670Y5435600D01*
X6928865Y3556000D02*
G01*
X6850888Y3556000D01*
X6835393Y3550920D01*
X6824979Y3540505D01*
X6819900Y3524757D01*
X6819900Y3514344D01*
X6824979Y3498850D01*
X6835393Y3488436D01*
X6850888Y3483355D01*
X6928865Y3483355D01*
X6908038Y3449065D02*
G01*
X6913372Y3438652D01*
X6928865Y3422904D01*
X6819900Y3422904D01*
D11*
X6692138Y4025900D02*
G01*
X6596634Y3989578D01*
X6692138Y3953255D02*
G01*
X6596634Y3989578D01*
X6646672Y3868673D02*
G01*
X6655815Y3877818D01*
X6660388Y3886707D01*
X6660388Y3900423D01*
X6655815Y3909568D01*
X6646672Y3918712D01*
X6633209Y3923284D01*
X6624065Y3923284D01*
X6610350Y3918712D01*
X6601206Y3909568D01*
X6596634Y3900423D01*
X6596634Y3886707D01*
X6601206Y3877818D01*
X6610350Y3868673D01*
X6646672Y3784092D02*
G01*
X6655815Y3793236D01*
X6660388Y3802379D01*
X6660388Y3815842D01*
X6655815Y3824986D01*
X6646672Y3834129D01*
X6633209Y3838702D01*
X6624065Y3838702D01*
X6610350Y3834129D01*
X6601206Y3824986D01*
X6596634Y3815842D01*
X6596634Y3802379D01*
X6601206Y3793236D01*
X6610350Y3784092D01*
X5054600Y3113278D02*
G01*
X5054600Y2919476D01*
X5115559Y3113278D02*
G01*
X5115559Y2919476D01*
X5115559Y3113278D02*
G01*
X5189474Y2919476D01*
X5263388Y3113278D02*
G01*
X5189474Y2919476D01*
X5263388Y3113278D02*
G01*
X5263388Y2919476D01*
X5324347Y3113278D02*
G01*
X5324347Y2974847D01*
X5333491Y2947162D01*
X5352034Y2928620D01*
X5379720Y2919476D01*
X5398261Y2919476D01*
X5425947Y2928620D01*
X5444490Y2947162D01*
X5453634Y2974847D01*
X5453634Y3113278D01*
X5634736Y3048762D02*
G01*
X5625338Y3021076D01*
X5607050Y3002534D01*
X5579109Y2993389D01*
X5569965Y2993389D01*
X5542279Y3002534D01*
X5523738Y3021076D01*
X5514593Y3048762D01*
X5514593Y3057905D01*
X5523738Y3085592D01*
X5542279Y3104134D01*
X5569965Y3113278D01*
X5579109Y3113278D01*
X5607050Y3104134D01*
X5625338Y3085592D01*
X5634736Y3048762D01*
X5634736Y3002534D01*
X5625338Y2956305D01*
X5607050Y2928620D01*
X5579109Y2919476D01*
X5560822Y2919476D01*
X5533136Y2928620D01*
X5523738Y2947162D01*
X5704840Y3067050D02*
G01*
X5704840Y3076447D01*
X5713984Y3094989D01*
X5723381Y3104134D01*
X5741670Y3113278D01*
X5778754Y3113278D01*
X5797295Y3104134D01*
X5806440Y3094989D01*
X5815584Y3076447D01*
X5815584Y3057905D01*
X5806440Y3039363D01*
X5787897Y3011678D01*
X5695695Y2919476D01*
X5824981Y2919476D01*
X5996686Y3113278D02*
G01*
X5904229Y3113278D01*
X5895086Y3030220D01*
X5904229Y3039363D01*
X5932170Y3048762D01*
X5959856Y3048762D01*
X5987541Y3039363D01*
X6005829Y3021076D01*
X6015227Y2993389D01*
X6015227Y2974847D01*
X6005829Y2947162D01*
X5987541Y2928620D01*
X5959856Y2919476D01*
X5932170Y2919476D01*
X5904229Y2928620D01*
X5895086Y2937763D01*
X5885941Y2956305D01*
X6131559Y3113278D02*
G01*
X6103874Y3104134D01*
X6085331Y3076447D01*
X6076188Y3030220D01*
X6076188Y3002534D01*
X6085331Y2956305D01*
X6103874Y2928620D01*
X6131559Y2919476D01*
X6150102Y2919476D01*
X6177788Y2928620D01*
X6196329Y2956305D01*
X6205474Y3002534D01*
X6205474Y3030220D01*
X6196329Y3076447D01*
X6177788Y3104134D01*
X6150102Y3113278D01*
X6131559Y3113278D01*
D10*
X7098284Y4292600D02*
G01*
X7176261Y4292600D01*
X7191756Y4297679D01*
X7202170Y4308094D01*
X7207250Y4323842D01*
X7207250Y4334255D01*
X7202170Y4349750D01*
X7191756Y4360163D01*
X7176261Y4365244D01*
X7098284Y4365244D01*
X7124191Y4404868D02*
G01*
X7119111Y4404868D01*
X7108697Y4409947D01*
X7103363Y4415281D01*
X7098284Y4425695D01*
X7098284Y4446270D01*
X7103363Y4456684D01*
X7108697Y4462018D01*
X7119111Y4467097D01*
X7129525Y4467097D01*
X7139940Y4462018D01*
X7155434Y4451604D01*
X7207250Y4399534D01*
X7207250Y4472431D01*
D12*
X7267193Y4508500D02*
G01*
X7260590Y4522215D01*
X7240015Y4542536D01*
X7383272Y4542536D01*
X7274052Y4261357D02*
G01*
X7267193Y4261357D01*
X7253731Y4268215D01*
X7246874Y4275073D01*
X7240015Y4288536D01*
X7240015Y4315968D01*
X7246874Y4329429D01*
X7253731Y4336287D01*
X7267193Y4343145D01*
X7280909Y4343145D01*
X7294625Y4336287D01*
X7314945Y4322571D01*
X7383272Y4254500D01*
X7383272Y4350004D01*
X7240015Y4001515D02*
G01*
X7240015Y4076445D01*
X7294625Y4035552D01*
X7294625Y4055871D01*
X7301484Y4069587D01*
X7308341Y4076445D01*
X7328661Y4083304D01*
X7342377Y4083304D01*
X7362697Y4076445D01*
X7376413Y4062729D01*
X7383272Y4042410D01*
X7383272Y4021836D01*
X7376413Y4001515D01*
X7369556Y3994657D01*
X7355840Y3987800D01*
D10*
X4203700Y7265415D02*
G01*
X4203700Y7187437D01*
X4208779Y7171944D01*
X4219193Y7161529D01*
X4234941Y7156450D01*
X4245356Y7156450D01*
X4260850Y7161529D01*
X4271263Y7171944D01*
X4276343Y7187437D01*
X4276343Y7265415D01*
X4321047Y7265415D02*
G01*
X4378197Y7265415D01*
X4347209Y7223760D01*
X4362704Y7223760D01*
X4373118Y7218679D01*
X4378197Y7213600D01*
X4383531Y7197852D01*
X4383531Y7187437D01*
X4378197Y7171944D01*
X4367784Y7161529D01*
X4352290Y7156450D01*
X4336795Y7156450D01*
X4321047Y7161529D01*
X4315968Y7166610D01*
X4310634Y7177023D01*
D13*
X1479042Y6534657D02*
G01*
X1474470Y6544055D01*
X1465071Y6553200D01*
X1455928Y6557771D01*
X1437386Y6557771D01*
X1428242Y6553200D01*
X1418844Y6544055D01*
X1414271Y6534657D01*
X1409700Y6520942D01*
X1409700Y6497828D01*
X1414271Y6483857D01*
X1418844Y6474713D01*
X1428242Y6465570D01*
X1437386Y6460744D01*
X1455928Y6460744D01*
X1465071Y6465570D01*
X1474470Y6474713D01*
X1479042Y6483857D01*
X1479042Y6497828D01*
X1455928Y6497828D02*
G01*
X1479042Y6497828D01*
X1509521Y6557771D02*
G01*
X1509521Y6460744D01*
X1509521Y6557771D02*
G01*
X1574037Y6460744D01*
X1574037Y6557771D02*
G01*
X1574037Y6460744D01*
X1604518Y6557771D02*
G01*
X1604518Y6460744D01*
X1604518Y6557771D02*
G01*
X1637029Y6557771D01*
X1650745Y6553200D01*
X1659889Y6544055D01*
X1664715Y6534657D01*
X1669287Y6520942D01*
X1669287Y6497828D01*
X1664715Y6483857D01*
X1659889Y6474713D01*
X1650745Y6465570D01*
X1637029Y6460744D01*
X1604518Y6460744D01*
X1437386Y6316471D02*
G01*
X1428242Y6311900D01*
X1418844Y6302755D01*
X1414271Y6293357D01*
X1409700Y6279642D01*
X1409700Y6256528D01*
X1414271Y6242557D01*
X1418844Y6233413D01*
X1428242Y6224270D01*
X1437386Y6219444D01*
X1455928Y6219444D01*
X1465071Y6224270D01*
X1474470Y6233413D01*
X1479042Y6242557D01*
X1483613Y6256528D01*
X1483613Y6279642D01*
X1479042Y6293357D01*
X1474470Y6302755D01*
X1465071Y6311900D01*
X1455928Y6316471D01*
X1437386Y6316471D01*
X1514094Y6316471D02*
G01*
X1514094Y6219444D01*
X1514094Y6316471D02*
G01*
X1574037Y6316471D01*
X1514094Y6270244D02*
G01*
X1550923Y6270244D01*
X1514094Y6219444D02*
G01*
X1574037Y6219444D01*
X1474470Y6048755D02*
G01*
X1465071Y6057900D01*
X1451355Y6062471D01*
X1432813Y6062471D01*
X1418844Y6057900D01*
X1409700Y6048755D01*
X1409700Y6039357D01*
X1414271Y6030213D01*
X1418844Y6025642D01*
X1428242Y6021070D01*
X1455928Y6011671D01*
X1465071Y6007100D01*
X1469644Y6002528D01*
X1474470Y5993129D01*
X1474470Y5979413D01*
X1465071Y5970270D01*
X1451355Y5965444D01*
X1432813Y5965444D01*
X1418844Y5970270D01*
X1409700Y5979413D01*
X1574037Y6039357D02*
G01*
X1569465Y6048755D01*
X1560321Y6057900D01*
X1550923Y6062471D01*
X1532636Y6062471D01*
X1523237Y6057900D01*
X1514094Y6048755D01*
X1509521Y6039357D01*
X1504950Y6025642D01*
X1504950Y6002528D01*
X1509521Y5988557D01*
X1514094Y5979413D01*
X1523237Y5970270D01*
X1532636Y5965444D01*
X1550923Y5965444D01*
X1560321Y5970270D01*
X1569465Y5979413D01*
X1574037Y5988557D01*
X1604518Y6062471D02*
G01*
X1604518Y5965444D01*
X1604518Y5965444D02*
G01*
X1659889Y5965444D01*
X1461770Y5782055D02*
G01*
X1452371Y5791200D01*
X1438655Y5795771D01*
X1420113Y5795771D01*
X1406144Y5791200D01*
X1397000Y5782055D01*
X1397000Y5772657D01*
X1401571Y5763513D01*
X1406144Y5758942D01*
X1415542Y5754370D01*
X1443228Y5744971D01*
X1452371Y5740400D01*
X1456944Y5735828D01*
X1461770Y5726429D01*
X1461770Y5712713D01*
X1452371Y5703570D01*
X1438655Y5698744D01*
X1420113Y5698744D01*
X1406144Y5703570D01*
X1397000Y5712713D01*
X1492250Y5795771D02*
G01*
X1492250Y5698744D01*
X1492250Y5795771D02*
G01*
X1524507Y5795771D01*
X1538223Y5791200D01*
X1547621Y5782055D01*
X1552194Y5772657D01*
X1556765Y5758942D01*
X1556765Y5735828D01*
X1552194Y5721857D01*
X1547621Y5712713D01*
X1538223Y5703570D01*
X1524507Y5698744D01*
X1492250Y5698744D01*
X1624329Y5795771D02*
G01*
X1587245Y5698744D01*
X1624329Y5795771D02*
G01*
X1661160Y5698744D01*
X1601215Y5731255D02*
G01*
X1647189Y5731255D01*
X1397000Y5541771D02*
G01*
X1433829Y5444744D01*
X1470913Y5541771D02*
G01*
X1433829Y5444744D01*
X1570736Y5518657D02*
G01*
X1565910Y5528055D01*
X1556765Y5537200D01*
X1547621Y5541771D01*
X1529079Y5541771D01*
X1519936Y5537200D01*
X1510537Y5528055D01*
X1505965Y5518657D01*
X1501394Y5504942D01*
X1501394Y5481828D01*
X1505965Y5467857D01*
X1510537Y5458713D01*
X1519936Y5449570D01*
X1529079Y5444744D01*
X1547621Y5444744D01*
X1556765Y5449570D01*
X1565910Y5458713D01*
X1570736Y5467857D01*
X1670304Y5518657D02*
G01*
X1665731Y5528055D01*
X1656587Y5537200D01*
X1647189Y5541771D01*
X1628902Y5541771D01*
X1619504Y5537200D01*
X1610360Y5528055D01*
X1605787Y5518657D01*
X1601215Y5504942D01*
X1601215Y5481828D01*
X1605787Y5467857D01*
X1610360Y5458713D01*
X1619504Y5449570D01*
X1628902Y5444744D01*
X1647189Y5444744D01*
X1656587Y5449570D01*
X1665731Y5458713D01*
X1670304Y5467857D01*
X1397000Y5287771D02*
G01*
X1433829Y5190744D01*
X1470913Y5287771D02*
G01*
X1433829Y5190744D01*
X1543050Y5274055D02*
G01*
X1543050Y5190744D01*
X1501394Y5232400D02*
G01*
X1584452Y5232400D01*
D14*
X3492500Y6123686D02*
G01*
X3492500Y5881370D01*
X3492500Y6123686D02*
G01*
X3596386Y6123686D01*
X3630929Y6112255D01*
X3642613Y6100571D01*
X3654043Y6077457D01*
X3654043Y6042913D01*
X3642613Y6019800D01*
X3630929Y6008370D01*
X3596386Y5996686D01*
X3492500Y5996686D01*
X3903472Y6066028D02*
G01*
X3892041Y6089142D01*
X3868927Y6112255D01*
X3845813Y6123686D01*
X3799586Y6123686D01*
X3776472Y6112255D01*
X3753358Y6089142D01*
X3741927Y6066028D01*
X3730243Y6031229D01*
X3730243Y5973571D01*
X3741927Y5939028D01*
X3753358Y5915913D01*
X3776472Y5892800D01*
X3799586Y5881370D01*
X3845813Y5881370D01*
X3868927Y5892800D01*
X3892041Y5915913D01*
X3903472Y5939028D01*
X4072127Y6123686D02*
G01*
X3979672Y5881370D01*
X4072127Y6123686D02*
G01*
X4164329Y5881370D01*
X4014470Y5962142D02*
G01*
X4129786Y5962142D01*
X4390643Y6042913D02*
G01*
X4379213Y6008370D01*
X4356100Y5985255D01*
X4321556Y5973571D01*
X4309872Y5973571D01*
X4275327Y5985255D01*
X4252213Y6008370D01*
X4240529Y6042913D01*
X4240529Y6054344D01*
X4252213Y6089142D01*
X4275327Y6112255D01*
X4309872Y6123686D01*
X4321556Y6123686D01*
X4356100Y6112255D01*
X4379213Y6089142D01*
X4390643Y6042913D01*
X4390643Y5985255D01*
X4379213Y5927344D01*
X4356100Y5892800D01*
X4321556Y5881370D01*
X4298441Y5881370D01*
X4263643Y5892800D01*
X4252213Y5915913D01*
X4605527Y6089142D02*
G01*
X4593843Y6112255D01*
X4559300Y6123686D01*
X4536186Y6123686D01*
X4501641Y6112255D01*
X4478527Y6077457D01*
X4466843Y6019800D01*
X4466843Y5962142D01*
X4478527Y5915913D01*
X4501641Y5892800D01*
X4536186Y5881370D01*
X4547870Y5881370D01*
X4582413Y5892800D01*
X4605527Y5915913D01*
X4616958Y5950457D01*
X4616958Y5962142D01*
X4605527Y5996686D01*
X4582413Y6019800D01*
X4547870Y6031229D01*
X4536186Y6031229D01*
X4501641Y6019800D01*
X4478527Y5996686D01*
X4466843Y5962142D01*
X4751070Y6123686D02*
G01*
X4716272Y6112255D01*
X4704841Y6089142D01*
X4704841Y6066028D01*
X4716272Y6042913D01*
X4739386Y6031229D01*
X4785613Y6019800D01*
X4820158Y6008370D01*
X4843272Y5985255D01*
X4854956Y5962142D01*
X4854956Y5927344D01*
X4843272Y5904229D01*
X4831841Y5892800D01*
X4797043Y5881370D01*
X4751070Y5881370D01*
X4716272Y5892800D01*
X4704841Y5904229D01*
X4693158Y5927344D01*
X4693158Y5962142D01*
X4704841Y5985255D01*
X4727956Y6008370D01*
X4762500Y6019800D01*
X4808727Y6031229D01*
X4831841Y6042913D01*
X4843272Y6066028D01*
X4843272Y6089142D01*
X4831841Y6112255D01*
X4797043Y6123686D01*
X4751070Y6123686D01*
X5069586Y6123686D02*
G01*
X4954270Y6123686D01*
X4942586Y6019800D01*
X4954270Y6031229D01*
X4988813Y6042913D01*
X5023358Y6042913D01*
X5058156Y6031229D01*
X5081270Y6008370D01*
X5092700Y5973571D01*
X5092700Y5950457D01*
X5081270Y5915913D01*
X5058156Y5892800D01*
X5023358Y5881370D01*
X4988813Y5881370D01*
X4954270Y5892800D01*
X4942586Y5904229D01*
X4931156Y5927344D01*
X2857500Y5709157D02*
G01*
X2880613Y5720842D01*
X2915158Y5755386D01*
X2915158Y5513070D01*
X3130041Y5720842D02*
G01*
X3118358Y5743955D01*
X3083813Y5755386D01*
X3060700Y5755386D01*
X3026156Y5743955D01*
X3003041Y5709157D01*
X2991358Y5651500D01*
X2991358Y5593842D01*
X3003041Y5547613D01*
X3026156Y5524500D01*
X3060700Y5513070D01*
X3072129Y5513070D01*
X3106927Y5524500D01*
X3130041Y5547613D01*
X3141472Y5582157D01*
X3141472Y5593842D01*
X3130041Y5628386D01*
X3106927Y5651500D01*
X3072129Y5662929D01*
X3060700Y5662929D01*
X3026156Y5651500D01*
X3003041Y5628386D01*
X2991358Y5593842D01*
X3395472Y5674613D02*
G01*
X3522472Y5513070D01*
X3522472Y5674613D02*
G01*
X3395472Y5513070D01*
X3776472Y5709157D02*
G01*
X3799586Y5720842D01*
X3834129Y5755386D01*
X3834129Y5513070D01*
X3922013Y5697728D02*
G01*
X3922013Y5709157D01*
X3933443Y5732271D01*
X3945127Y5743955D01*
X3968241Y5755386D01*
X4014470Y5755386D01*
X4037329Y5743955D01*
X4049013Y5732271D01*
X4060443Y5709157D01*
X4060443Y5686044D01*
X4049013Y5662929D01*
X4025900Y5628386D01*
X3910329Y5513070D01*
X4072127Y5513070D01*
X4148327Y5616955D02*
G01*
X4356100Y5616955D01*
X4432300Y5755386D02*
G01*
X4432300Y5513070D01*
X4432300Y5640070D02*
G01*
X4455413Y5662929D01*
X4478527Y5674613D01*
X4513072Y5674613D01*
X4536186Y5662929D01*
X4559300Y5640070D01*
X4570729Y5605271D01*
X4570729Y5582157D01*
X4559300Y5547613D01*
X4536186Y5524500D01*
X4513072Y5513070D01*
X4478527Y5513070D01*
X4455413Y5524500D01*
X4432300Y5547613D01*
X4646929Y5755386D02*
G01*
X4658613Y5743955D01*
X4670043Y5755386D01*
X4658613Y5767070D01*
X4646929Y5755386D01*
X4658613Y5674613D02*
G01*
X4658613Y5513070D01*
X4781041Y5755386D02*
G01*
X4781041Y5559044D01*
X4792472Y5524500D01*
X4815586Y5513070D01*
X4838700Y5513070D01*
X4746243Y5674613D02*
G01*
X4827270Y5674613D01*
X5092700Y5755386D02*
G01*
X5092700Y5513070D01*
X5092700Y5755386D02*
G01*
X5196586Y5755386D01*
X5231129Y5743955D01*
X5242813Y5732271D01*
X5254243Y5709157D01*
X5254243Y5674613D01*
X5242813Y5651500D01*
X5231129Y5640070D01*
X5196586Y5628386D01*
X5092700Y5628386D01*
X5330443Y5755386D02*
G01*
X5388356Y5513070D01*
X5446013Y5755386D02*
G01*
X5388356Y5513070D01*
X5446013Y5755386D02*
G01*
X5503672Y5513070D01*
X5561329Y5755386D02*
G01*
X5503672Y5513070D01*
X5637529Y5755386D02*
G01*
X5637529Y5513070D01*
X5637529Y5755386D02*
G01*
X5729986Y5513070D01*
X5822441Y5755386D02*
G01*
X5729986Y5513070D01*
X5822441Y5755386D02*
G01*
X5822441Y5513070D01*
D10*
X2691384Y3619500D02*
G01*
X2769361Y3619500D01*
X2784856Y3624579D01*
X2795270Y3634994D01*
X2800350Y3650742D01*
X2800350Y3661155D01*
X2795270Y3676650D01*
X2784856Y3687063D01*
X2769361Y3692144D01*
X2691384Y3692144D01*
X2706877Y3788918D02*
G01*
X2696463Y3783584D01*
X2691384Y3768089D01*
X2691384Y3757676D01*
X2696463Y3742181D01*
X2712211Y3731768D01*
X2738120Y3726434D01*
X2764027Y3726434D01*
X2784856Y3731768D01*
X2795270Y3742181D01*
X2800350Y3757676D01*
X2800350Y3763010D01*
X2795270Y3778504D01*
X2784856Y3788918D01*
X2769361Y3793997D01*
X2764027Y3793997D01*
X2748534Y3788918D01*
X2738120Y3778504D01*
X2733040Y3763010D01*
X2733040Y3757676D01*
X2738120Y3742181D01*
X2748534Y3731768D01*
X2764027Y3726434D01*
D15*
X3039874Y3365500D02*
G01*
X3135632Y3402076D01*
X3039874Y3438397D02*
G01*
X3135632Y3402076D01*
X3039874Y3468623D02*
G01*
X3044446Y3473195D01*
X3039874Y3477768D01*
X3035302Y3473195D01*
X3039874Y3468623D01*
X3071624Y3473195D02*
G01*
X3135632Y3473195D01*
X3071624Y3507739D02*
G01*
X3135632Y3507739D01*
X3089912Y3507739D02*
G01*
X3076196Y3521455D01*
X3071624Y3530600D01*
X3071624Y3544315D01*
X3076196Y3553460D01*
X3089912Y3557778D01*
X3135632Y3557778D01*
D12*
X3311906Y3408426D02*
G01*
X3302761Y3403854D01*
X3293872Y3394710D01*
X3289300Y3385565D01*
X3289300Y3367531D01*
X3293872Y3358387D01*
X3302761Y3349244D01*
X3311906Y3344671D01*
X3325622Y3340100D01*
X3348481Y3340100D01*
X3362197Y3344671D01*
X3371341Y3349244D01*
X3380486Y3358387D01*
X3385058Y3367531D01*
X3385058Y3385565D01*
X3380486Y3394710D01*
X3371341Y3403854D01*
X3362197Y3408426D01*
X3348481Y3408426D01*
X3348481Y3385565D02*
G01*
X3348481Y3408426D01*
X3289300Y3438652D02*
G01*
X3385058Y3438652D01*
X3289300Y3438652D02*
G01*
X3385058Y3502405D01*
X3289300Y3502405D02*
G01*
X3385058Y3502405D01*
X3289300Y3532378D02*
G01*
X3385058Y3532378D01*
X3289300Y3532378D02*
G01*
X3289300Y3564381D01*
X3293872Y3578097D01*
X3302761Y3587242D01*
X3311906Y3591813D01*
X3325622Y3596386D01*
X3348481Y3596386D01*
X3362197Y3591813D01*
X3371341Y3587242D01*
X3380486Y3578097D01*
X3385058Y3564381D01*
X3385058Y3532378D01*
X3557524Y3405886D02*
G01*
X3548125Y3396487D01*
X3543300Y3382263D01*
X3543300Y3363468D01*
X3548125Y3349497D01*
X3557524Y3340100D01*
X3566922Y3340100D01*
X3576320Y3344671D01*
X3580891Y3349497D01*
X3585718Y3358895D01*
X3595115Y3387089D01*
X3599688Y3396487D01*
X3604259Y3401060D01*
X3613658Y3405886D01*
X3627881Y3405886D01*
X3637279Y3396487D01*
X3641852Y3382263D01*
X3641852Y3363468D01*
X3637279Y3349497D01*
X3627881Y3340100D01*
X3566922Y3506978D02*
G01*
X3557524Y3502405D01*
X3548125Y3493007D01*
X3543300Y3483610D01*
X3543300Y3464813D01*
X3548125Y3455415D01*
X3557524Y3446018D01*
X3566922Y3441445D01*
X3580891Y3436620D01*
X3604259Y3436620D01*
X3618484Y3441445D01*
X3627881Y3446018D01*
X3637279Y3455415D01*
X3641852Y3464813D01*
X3641852Y3483610D01*
X3637279Y3493007D01*
X3627881Y3502405D01*
X3618484Y3506978D01*
X3543300Y3537965D02*
G01*
X3641852Y3537965D01*
X3641852Y3537965D02*
G01*
X3641852Y3594354D01*
X3811524Y3405886D02*
G01*
X3802125Y3396487D01*
X3797300Y3382263D01*
X3797300Y3363468D01*
X3802125Y3349497D01*
X3811524Y3340100D01*
X3820922Y3340100D01*
X3830320Y3344671D01*
X3834891Y3349497D01*
X3839718Y3358895D01*
X3849115Y3387089D01*
X3853688Y3396487D01*
X3858259Y3401060D01*
X3867658Y3405886D01*
X3881881Y3405886D01*
X3891279Y3396487D01*
X3895852Y3382263D01*
X3895852Y3363468D01*
X3891279Y3349497D01*
X3881881Y3340100D01*
X3797300Y3436620D02*
G01*
X3895852Y3436620D01*
X3797300Y3436620D02*
G01*
X3797300Y3469639D01*
X3802125Y3483610D01*
X3811524Y3493007D01*
X3820922Y3497834D01*
X3834891Y3502405D01*
X3858259Y3502405D01*
X3872484Y3497834D01*
X3881881Y3493007D01*
X3891279Y3483610D01*
X3895852Y3469639D01*
X3895852Y3436620D01*
X3797300Y3570986D02*
G01*
X3895852Y3533394D01*
X3797300Y3570986D02*
G01*
X3895852Y3608323D01*
X3863086Y3547363D02*
G01*
X3863086Y3594354D01*
D16*
X8458200Y4833873D02*
G01*
X8658097Y4833873D01*
X8658199Y4934000D01*
X8658199Y4934000D01*
X8608199Y5034000D01*
X8608199Y5334000D01*
X8608199Y5633999D01*
X8658097Y5734050D01*
X8658097Y5834126D01*
X8258302Y5834126D01*
X8258302Y5734050D01*
X8308200Y5633999D01*
X8308200Y5334000D01*
X8308200Y5034000D01*
X8258200Y4942586D01*
X8458200Y4834001D02*
G01*
X8258200Y4834001D01*
X8258200Y4942586D01*
X8458200Y4834001D02*
G01*
X8458200Y4621301D01*
X8458200Y5833998D02*
G01*
X8458200Y6033998D01*
X8148574Y6591300D02*
G01*
X8148574Y6391402D01*
X8248700Y6391300D01*
X8248700Y6391300D01*
X8348700Y6441300D01*
X8648700Y6441300D01*
X8948699Y6441300D01*
X9048750Y6391402D01*
X9148825Y6391402D01*
X9148825Y6791197D01*
X9048750Y6791197D01*
X8948699Y6741299D01*
X8648700Y6741299D01*
X8348700Y6741299D01*
X8257286Y6791299D01*
X8148700Y6591300D02*
G01*
X8148700Y6791299D01*
X8257286Y6791299D01*
X8148700Y6591300D02*
G01*
X7936001Y6591300D01*
X9148699Y6591300D02*
G01*
X9348698Y6591300D01*
D17*
X3605199Y-3822700D02*
G01*
X2589199Y-3822700D01*
X2589199Y-3568700D01*
X3605199Y-3568700D01*
X3605199Y-3822700D01*
D12*
X6489700Y-3302000D02*
G01*
X6489700Y-2794000D01*
X1409700Y-2794000D01*
X1409700Y-3302000D01*
X6489700Y-3302000D01*
D19*
X2032000Y-3568700D02*
G01*
X1524000Y-3568700D01*
D12*
X1524000Y-3822700D02*
G01*
X2032000Y-3822700D01*
X2032000Y-3568700D01*
X2032000Y-3568700D01*
X1714497Y-3568697D02*
G01*
X1523997Y-3568697D01*
X1523997Y-3822697D01*
D20*
X9093200Y5562600D02*
G01*
X9118600Y5537200D01*
X9093200Y5943600D02*
G01*
X9118600Y5969000D01*
X9093200Y5562600D02*
G01*
X9093200Y5943600D01*
D16*
X6788150Y4292600D02*
G01*
X6788150Y2792603D01*
X4248150Y2792603D01*
X4248150Y4292600D01*
X6788150Y4292600D01*
X7670800Y4673600D02*
G01*
X7670800Y3911600D01*
X7416800Y3911600D02*
G01*
X7416800Y4673600D01*
X7416800Y3911600D02*
G01*
X7670800Y3911600D01*
X7416800Y4165600D02*
G01*
X7670800Y4165600D01*
X7416800Y4419600D02*
G01*
X7670800Y4419600D01*
X7416800Y4673600D02*
G01*
X7670800Y4673600D01*
X1397000Y7124697D02*
G01*
X7010400Y7124697D01*
X7315200Y4889497D02*
G01*
X7315200Y6819897D01*
X7010400Y4584697D02*
G01*
X1397000Y4584697D01*
X1092200Y6819897D02*
G01*
X1092200Y4889497D01*
X4102100Y2959100D02*
G01*
X2984500Y2959100D01*
X2832100Y2959100D01*
X2832100Y3111500D01*
X2832100Y3632707D01*
X2832100Y4305300D01*
X4102100Y4305300D01*
X4102100Y2959100D02*
G01*
X4102100Y4305300D01*
D20*
G75*
G01*
X9337446Y5546418D02*
G03*
X9340939Y5963285I-106665J209342D01*
D12*
G75*
G01*
X7197700Y6807200D02*
G03*
X7197496Y6798335I-200000J150D01*
G75*
G01*
X7197700Y4902200D02*
G03*
X7197496Y4893335I-200000J150D01*
D16*
G75*
G01*
X1397005Y4584690D02*
G02*
X1092205Y4889490I13772J318571D01*
G75*
G01*
X1092200Y6819897D02*
G02*
X1397000Y7124697I318572J-13771D01*
G75*
G01*
X7010395Y4584697D02*
G03*
X7315195Y4889497I-13772J318572D01*
G75*
G01*
X7010395Y7124697D02*
G02*
X7315195Y6819897I-13772J-318571D01*
G75*
G01
X3238500Y4025900D02*
G03X3238500Y4025900I-152400J0D01*
M02*
